<?xml version="1.0" standalone="no"?>
<!DOCTYPE svg PUBLIC "-//W3C//DTD SVG 20010904//EN"
 "http://www.w3.org/TR/2001/REC-SVG-20010904/DTD/svg10.dtd">
<svg version="1.0" xmlns="http://www.w3.org/2000/svg"
 width="1100.000000pt" height="1100.000000pt" viewBox="0 0 1100.000000 1100.000000"
 preserveAspectRatio="xMidYMid meet">
<metadata>
Created by potrace 1.14, written by Peter Selinger 2001-2017
</metadata>
<g transform="translate(0.000000,1100.000000) scale(0.100000,-0.100000)"
fill="#000000" stroke="none">
<path d="M5310 10714 c-776 -33 -1477 -211 -2150 -545 -669 -332 -1220 -766
-1698 -1338 -616 -737 -1022 -1643 -1162 -2595 -72 -491 -72 -1031 0 -1522
126 -859 470 -1683 994 -2384 266 -357 674 -766 1028 -1032 710 -535 1534
-880 2402 -1008 491 -72 1031 -72 1522 0 868 128 1692 473 2402 1008 354 266
762 675 1028 1032 524 701 868 1525 994 2384 72 491 72 1031 0 1522 -128 868
-473 1692 -1008 2402 -266 354 -675 762 -1032 1028 -701 524 -1525 868 -2384
994 -272 40 -696 64 -936 54z m-3166 -1697 c55 -41 59 -42 41 -6 -17 32 -17
32 36 -14 62 -54 80 -60 49 -17 -42 59 5 28 75 -49 39 -43 99 -102 135 -132
36 -29 149 -138 251 -241 103 -103 191 -188 196 -188 8 0 23 -21 64 -89 8 -14
31 -36 50 -48 19 -13 38 -26 42 -30 125 -124 251 -268 344 -393 39 -52 94
-115 123 -139 29 -24 60 -57 70 -73 9 -16 41 -54 71 -86 30 -31 70 -75 90 -98
80 -90 228 -220 272 -239 34 -14 47 -26 55 -49 8 -26 10 -27 11 -8 1 12 5 22
10 22 24 0 41 -14 41 -35 0 -13 7 -25 15 -29 8 -3 15 0 15 6 0 6 8 4 19 -6 17
-16 19 -16 24 5 5 19 8 20 21 9 9 -7 16 -20 17 -29 0 -12 2 -11 8 4 7 18 9 17
24 -10 l16 -30 1 45 c1 64 14 81 34 44 8 -16 16 -22 16 -14 0 11 6 8 20 -9
l20 -23 0 48 c0 78 21 90 51 31 l15 -28 18 53 c19 54 36 82 36 60 0 -7 7 -12
15 -12 8 0 15 -6 15 -12 0 -9 3 -9 9 1 7 11 11 10 22 -7 7 -11 18 -18 24 -16
6 3 17 -5 23 -18 11 -23 11 -23 11 5 1 37 16 34 31 -5 8 -23 14 -28 18 -18 3
8 11 21 19 29 12 11 16 11 26 -1 16 -20 47 -30 47 -17 0 6 9 9 19 6 15 -3 21
2 26 22 6 24 8 25 19 8 17 -22 26 -22 26 3 0 27 14 25 28 -2 10 -22 11 -21 11
10 1 19 5 31 11 27 6 -3 10 5 10 19 0 50 19 35 31 -24 14 -71 25 -83 34 -38 4
18 12 42 17 52 10 19 11 19 24 1 14 -18 14 -18 14 1 0 30 12 41 51 48 35 6 36
5 60 -45 l24 -52 8 42 c11 55 29 48 43 -17 19 -84 27 -94 34 -42 l6 45 19 -38
c11 -22 22 -33 26 -26 9 15 29 2 29 -19 0 -15 2 -15 10 -2 5 8 10 26 10 39 0
23 1 23 19 7 19 -17 20 -16 34 31 l14 48 12 -42 c14 -52 31 -65 31 -24 0 37
15 41 24 7 3 -13 19 -52 35 -87 24 -52 30 -59 30 -36 1 28 16 37 24 15 4 -13
9 7 22 87 l7 40 14 -28 c8 -15 19 -25 23 -23 5 3 16 -3 26 -14 25 -28 32 -25
39 15 4 19 11 35 16 35 8 0 22 -37 33 -85 3 -11 5 0 6 23 1 48 21 55 31 11 3
-13 12 -24 19 -24 7 0 19 -13 26 -30 l13 -30 1 35 c1 42 17 73 25 50 2 -8 7
-22 9 -30 3 -8 6 -1 6 17 1 33 16 52 24 31 3 -7 6 -1 6 14 1 14 4 34 7 42 5
14 10 13 30 -7 13 -13 28 -35 33 -48 10 -24 10 -24 10 4 1 18 6 27 14 25 11
-4 18 -24 52 -153 7 -27 14 -45 15 -40 1 6 8 -3 16 -20 14 -29 14 -29 13 -5
-1 14 -1 31 0 38 1 17 21 15 21 -2 0 -8 5 -18 11 -21 6 -4 10 -1 8 6 -5 40 2
56 24 55 17 -1 23 5 25 27 2 20 8 27 18 23 8 -3 14 0 14 7 0 7 9 30 19 52 l18
40 13 -42 c7 -23 17 -40 21 -37 5 2 19 -16 32 -42 l24 -47 14 44 c18 58 38 56
60 -5 l16 -48 7 46 c5 30 12 46 22 46 8 0 14 -6 14 -13 0 -7 11 -28 24 -46 23
-30 25 -31 31 -12 3 12 10 21 14 21 15 0 38 -35 49 -76 7 -23 22 -54 34 -70
l23 -29 6 40 c5 39 6 39 16 15 10 -22 12 -23 18 -8 6 16 9 16 26 -5 l18 -22 1
28 c0 30 14 36 24 11 6 -16 8 -16 24 0 24 21 28 20 37 -6 8 -22 8 -22 12 5 5
31 11 34 28 10 11 -14 13 -13 19 11 5 19 12 26 21 22 9 -3 15 1 15 9 0 19 14
19 30 1 14 -18 57 -5 77 24 8 11 21 20 30 20 9 0 30 9 49 20 20 13 35 17 39
11 7 -12 89 44 124 86 14 15 53 60 87 98 35 39 80 94 101 122 21 29 80 99 132
155 52 57 126 139 165 183 80 90 148 165 254 280 40 44 89 106 110 139 49 77
230 275 600 653 179 184 200 202 234 205 46 3 58 -8 97 -86 32 -66 46 -123 56
-236 4 -36 8 -83 10 -105 5 -47 31 -164 74 -329 23 -88 31 -140 31 -205 0 -48
8 -141 17 -206 17 -124 24 -586 9 -650 -4 -16 -8 -50 -10 -75 -3 -25 -6 -65
-9 -90 -3 -25 -8 -92 -12 -150 -4 -60 -14 -118 -23 -135 -8 -16 -18 -37 -23
-46 -4 -9 -3 -22 1 -29 5 -9 1 -28 -11 -51 -22 -44 -24 -53 -7 -43 7 5 8 3 3
-7 -5 -7 -12 -31 -16 -54 -8 -42 -49 -160 -64 -184 -4 -8 -9 -26 -11 -40 -1
-14 -14 -57 -29 -96 -15 -38 -32 -88 -37 -110 -5 -22 -18 -57 -28 -77 -10 -21
-15 -38 -10 -38 10 0 10 -61 0 -75 -13 -19 -33 -100 -35 -141 -1 -25 -11 -53
-26 -73 -23 -31 -35 -101 -17 -101 11 0 0 -60 -14 -77 -7 -9 -7 -13 1 -13 7 0
11 -8 9 -17 -1 -10 1 -24 6 -31 5 -9 0 -23 -17 -40 -13 -15 -23 -32 -20 -38 2
-6 -3 -17 -12 -24 -24 -20 -18 -30 17 -30 30 0 30 -1 14 -19 -9 -10 -19 -31
-22 -47 -3 -16 -10 -34 -16 -41 -8 -10 -4 -13 18 -13 l27 0 -23 -26 c-20 -21
-22 -27 -10 -34 12 -7 12 -12 -4 -28 -13 -15 -14 -21 -4 -25 10 -3 9 -9 -4
-24 -22 -24 -23 -33 -2 -33 10 0 14 -6 10 -15 -3 -9 0 -15 8 -15 18 0 14 -29
-4 -40 -7 -5 -15 -18 -17 -29 -2 -15 3 -21 17 -21 21 0 29 -29 8 -31 -10 0
-10 -2 0 -6 6 -2 12 -11 12 -19 0 -9 11 -14 33 -14 l32 -1 -27 -15 c-15 -8
-39 -25 -54 -39 l-26 -24 53 4 c30 3 48 3 42 -1 -7 -3 -13 -12 -13 -20 0 -7
-15 -21 -32 -31 l-33 -18 40 -5 40 -5 -25 -17 -24 -18 37 0 c42 0 48 -12 15
-28 -18 -8 -19 -11 -5 -11 20 -1 22 -21 5 -40 -13 -12 -5 -23 42 -52 13 -8 12
-11 -4 -24 -19 -15 -19 -15 1 -15 14 0 20 -6 19 -17 0 -12 7 -19 22 -21 26 -4
27 -8 7 -29 -22 -22 -1 -43 42 -43 30 0 34 -2 23 -15 -10 -13 -9 -15 11 -15
22 -1 22 -2 -6 -14 l-30 -14 24 -9 c22 -9 22 -10 6 -26 -9 -9 -22 -17 -28 -18
-7 -1 6 -7 28 -13 27 -9 40 -19 40 -31 0 -10 5 -20 12 -22 7 -3 10 -10 7 -17
-3 -8 2 -21 11 -30 16 -15 15 -18 -7 -35 -23 -19 -23 -19 -4 -40 26 -28 30
-71 8 -87 -12 -10 -13 -13 -3 -14 11 0 11 -3 1 -15 -10 -12 -10 -15 4 -15 9 0
16 -4 16 -10 0 -5 -5 -10 -11 -10 -5 0 -7 -5 -4 -10 3 -6 17 -7 31 -4 15 4 24
2 24 -6 0 -6 -9 -14 -20 -17 -21 -6 -28 -23 -9 -23 6 0 9 -7 6 -15 -4 -8 -2
-17 4 -21 7 -4 4 -13 -6 -24 -15 -16 -14 -18 2 -25 16 -6 16 -8 -6 -26 -13
-10 -18 -19 -11 -19 7 0 10 -8 7 -20 -3 -10 0 -21 7 -23 8 -3 7 -8 -2 -19 -10
-13 -10 -17 0 -21 10 -3 10 -9 1 -25 -10 -17 -9 -21 9 -25 17 -5 19 -9 9 -21
-10 -12 -8 -15 7 -20 31 -10 36 -48 9 -69 -17 -14 -19 -20 -8 -24 10 -4 8 -9
-10 -19 l-24 -13 23 -1 c13 0 20 -4 17 -10 -3 -5 2 -10 12 -10 15 0 14 -2 -5
-16 l-22 -15 22 -19 23 -18 -30 -7 c-57 -13 -62 -16 -37 -28 30 -14 28 -26 -8
-34 -31 -6 -52 -23 -29 -23 10 0 10 -3 1 -12 -7 -7 -12 -22 -12 -35 0 -13 -4
-23 -10 -23 -23 0 -8 -19 19 -25 16 -3 35 -13 41 -20 13 -15 6 -35 -13 -35 -7
-1 -25 -7 -42 -14 l-30 -14 28 -11 c16 -6 25 -15 22 -21 -4 -6 5 -10 19 -10
34 0 33 -14 -4 -42 -20 -15 -28 -28 -25 -39 4 -12 -4 -25 -24 -40 -17 -12 -27
-28 -24 -35 3 -8 0 -14 -7 -14 -6 0 -8 -5 -4 -11 7 -12 -49 -69 -87 -89 -11
-6 -17 -15 -14 -19 2 -5 -2 -14 -11 -21 -12 -11 -12 -15 -2 -22 10 -7 9 -11
-5 -22 -9 -7 -17 -21 -17 -30 0 -9 -5 -16 -11 -16 -5 0 -8 -4 -5 -9 9 -14 -38
-49 -77 -56 -38 -7 -61 -25 -33 -25 9 0 16 -3 16 -6 0 -17 -148 -139 -180
-149 -16 -5 -19 -9 -10 -15 10 -6 3 -20 -25 -54 -20 -25 -41 -47 -46 -47 -5
-1 -15 -2 -21 -3 -7 -1 -26 -13 -43 -28 -16 -16 -38 -28 -47 -28 -9 0 -20 -10
-24 -22 -10 -32 -26 -45 -52 -43 -15 1 -21 -3 -18 -11 3 -7 -2 -18 -10 -24 -8
-7 -14 -10 -14 -6 0 3 -8 -2 -18 -11 -11 -10 -17 -21 -16 -24 2 -4 -10 -12
-27 -19 -40 -17 -80 -50 -74 -60 9 -15 -78 -65 -111 -65 -25 1 -30 -3 -26 -20
4 -26 -33 -48 -78 -47 -27 1 -30 -1 -19 -15 16 -18 3 -29 -86 -74 -88 -44 -93
-48 -177 -116 -26 -21 -71 -52 -100 -69 -331 -194 -474 -278 -478 -283 -14
-17 -89 -69 -117 -82 -18 -8 -33 -17 -33 -21 0 -5 -5 -8 -11 -8 -6 0 -36 -20
-67 -44 -32 -24 -88 -61 -127 -82 -83 -44 -154 -92 -256 -168 -108 -82 -223
-138 -423 -206 -267 -90 -268 -90 -771 -90 l-433 0 -163 31 c-90 17 -198 44
-239 60 -101 39 -261 135 -335 201 -75 67 -130 105 -220 151 -73 36 -323 211
-431 300 -34 29 -116 85 -181 124 -66 40 -148 99 -184 131 -76 70 -169 137
-336 243 -137 87 -247 168 -239 176 3 3 -12 14 -34 25 -28 14 -37 24 -33 35 5
12 2 15 -10 10 -9 -3 -17 -2 -17 3 0 5 -10 12 -23 15 -12 4 -33 17 -47 30 -14
12 -35 28 -47 34 -13 6 -23 18 -23 26 0 8 -8 15 -19 15 -10 0 -35 16 -56 35
-21 19 -42 32 -47 29 -12 -8 -37 26 -38 51 -1 18 -2 18 -10 -3 l-9 -22 -32 19
c-34 21 -129 109 -129 120 0 4 -18 15 -40 25 -22 10 -40 24 -40 32 0 8 -5 14
-11 14 -6 0 -8 9 -4 20 5 17 2 20 -23 20 -46 0 -69 39 -49 83 6 13 2 20 -18
29 -14 6 -25 15 -25 20 0 4 -7 8 -15 8 -8 0 -15 7 -15 15 0 8 -6 15 -14 15 -8
0 -19 12 -25 28 -6 15 -25 45 -41 67 -18 24 -29 49 -27 62 2 12 -2 24 -10 27
-8 3 -12 10 -8 15 3 5 1 12 -5 16 -6 4 -8 11 -4 16 3 6 -1 16 -9 22 -11 8 -14
21 -10 40 4 23 13 30 49 39 28 8 39 15 31 20 -9 6 -8 10 3 18 11 7 6 10 -21
10 -38 0 -66 29 -31 31 16 1 16 2 0 6 -20 5 -20 5 -12 27 3 9 12 16 20 16 7 0
11 6 9 13 -3 7 9 19 27 27 l33 15 -54 3 -55 3 30 20 c16 10 25 19 19 19 -5 0
-3 5 5 10 8 5 15 15 15 22 0 7 11 15 25 19 20 6 16 7 -20 9 -36 2 -40 3 -20 9
19 5 22 9 11 16 -12 7 -10 10 7 16 33 12 27 29 -10 30 -31 1 -32 1 -8 9 25 8
24 8 -5 9 l-30 2 34 28 c25 20 30 30 20 34 -8 3 0 6 16 7 26 1 27 3 10 10 -11
5 -35 9 -53 9 -42 1 -34 17 13 25 20 4 39 15 46 28 6 11 7 18 2 15 -4 -2 -17
-1 -28 4 -19 7 -19 8 -1 8 15 1 16 4 6 16 -7 8 -18 15 -25 15 -7 0 -15 9 -18
20 -3 11 -1 20 5 20 5 0 6 9 3 20 -5 17 -2 20 21 20 16 0 36 10 50 25 13 14
19 25 14 25 -6 0 -10 7 -10 15 0 9 -9 15 -24 15 -14 0 -28 5 -31 11 -4 6 -17
14 -29 19 -17 7 -12 9 24 10 l45 2 -35 13 c-32 12 -33 14 -10 15 18 2 20 4 7
7 -10 2 -17 10 -16 16 3 27 -2 37 -20 37 -22 0 -40 20 -19 21 7 0 4 4 -7 9
-14 6 -4 7 30 5 37 -4 43 -2 25 4 -25 9 -25 9 8 16 24 6 30 10 20 16 -10 7
-10 9 2 9 9 1 6 5 -7 10 -13 5 -23 18 -23 29 0 10 -7 22 -16 25 -21 8 -6 29
17 23 23 -6 36 11 15 19 -21 8 -20 24 2 25 9 0 12 3 6 5 -7 3 -10 14 -7 24 3
11 9 17 14 14 5 -3 9 0 9 6 0 6 4 8 10 5 6 -4 6 4 -1 22 -9 24 -7 31 15 49 19
17 24 30 22 57 -2 27 0 34 11 30 8 -3 13 -2 11 3 -4 12 34 74 45 74 5 0 7 7 3
15 -3 8 -1 15 5 15 6 0 9 7 5 15 -4 13 -2 13 14 5 10 -5 21 -10 24 -10 9 0 2
24 -9 33 -6 4 -5 10 4 16 8 5 11 16 8 25 -4 10 -1 19 8 22 8 4 15 12 15 20 0
8 5 14 10 14 6 0 10 9 10 20 0 11 4 20 8 20 4 0 16 14 26 30 9 17 21 28 26 25
5 -3 7 11 5 31 -2 28 3 41 21 57 19 17 21 23 11 36 -10 12 -9 14 6 8 15 -6 17
-3 12 13 -4 12 -2 20 5 20 7 0 10 6 7 14 -4 9 3 16 19 20 20 5 24 11 18 28 -5
17 -3 20 10 15 28 -11 17 0 -41 43 -32 23 -48 39 -37 36 23 -7 39 14 35 47 -1
10 3 24 9 32 7 8 8 20 4 26 -5 8 -3 9 6 4 10 -6 11 -3 5 16 -10 33 -6 122 6
130 7 4 5 27 -5 65 -10 40 -12 60 -5 65 8 4 7 14 -2 30 -7 13 -14 38 -15 54
-1 17 -5 41 -8 54 -5 20 -2 23 19 18 25 -4 36 15 15 28 -14 9 -13 48 2 63 7 7
9 12 4 12 -4 0 0 7 8 16 12 12 13 20 6 35 -6 10 -10 25 -9 32 3 18 -22 107
-32 113 -16 9 -9 24 8 17 13 -5 15 -3 8 13 -4 10 -10 30 -13 43 -4 20 -2 23
12 18 14 -6 14 -2 -3 32 -11 21 -17 47 -15 59 3 11 1 30 -6 42 -8 15 -8 25 -1
34 6 7 8 15 5 19 -3 3 -7 18 -9 34 -2 15 -8 45 -13 66 -10 37 -9 39 10 34 17
-5 16 0 -10 26 -34 35 -31 64 4 50 15 -6 14 -1 -8 26 -28 32 -32 43 -29 69 1
8 -3 20 -10 28 -10 12 -9 17 5 27 9 7 17 21 17 32 0 44 -10 94 -26 125 -12 23
-13 35 -5 44 12 15 5 40 -22 75 -22 29 -23 51 -2 51 15 0 15 2 -1 26 -11 17
-15 37 -12 54 3 15 1 32 -5 38 -5 5 -11 37 -13 69 -1 33 -8 70 -15 83 -7 13
-15 40 -17 60 -14 141 -14 144 1 155 12 10 13 16 3 36 -8 14 -12 52 -10 94 11
250 10 258 -17 283 -22 20 -22 22 -3 13 40 -20 56 -14 49 17 -4 15 -7 36 -7
47 0 11 -7 27 -15 36 -13 15 -13 17 1 23 10 4 14 13 10 28 -10 43 -12 118 -4
118 5 0 9 7 9 15 0 8 4 15 9 15 12 0 7 88 -6 101 -11 11 -6 49 6 49 3 0 6 57
7 128 1 164 6 242 16 248 5 3 6 10 3 15 -4 5 -1 9 4 9 7 0 11 39 11 110 0 61
4 110 9 110 16 0 24 76 11 101 -9 17 -9 23 0 29 7 4 9 13 6 19 -5 7 1 11 14
11 17 0 20 4 15 21 -6 16 -4 20 6 14 8 -5 5 2 -6 15 l-20 23 20 -7 c23 -9 23
-9 53 -7 20 1 21 4 12 21 -14 26 -4 25 34 -3z m2396 -1327 c-20 -13 -33 -13
-25 0 3 6 14 10 23 10 15 0 15 -2 2 -10z m2886 -358 c-16 -32 -54 -68 -62 -59
-5 5 63 87 72 87 3 0 -2 -12 -10 -28z m-5335 -1629 c13 -16 12 -17 -3 -4 -10
7 -18 15 -18 17 0 8 8 3 21 -13z m-71 -34 c0 -4 -7 -6 -15 -3 -8 4 -15 10 -15
15 0 4 7 6 15 3 8 -4 15 -10 15 -15z m-377 -1896 c-7 -2 -19 -2 -25 0 -7 3 -2
5 12 5 14 0 19 -2 13 -5z"/>
<path d="M8883 8910 c-43 -44 -150 -154 -238 -243 -185 -188 -416 -441 -434
-475 -11 -21 -164 -208 -181 -222 -3 -3 -68 -75 -144 -160 -232 -260 -262
-294 -303 -335 -21 -22 -56 -65 -78 -95 -86 -121 -272 -308 -314 -316 -17 -4
-51 -24 -75 -45 -24 -22 -54 -39 -65 -39 -12 0 -24 -6 -27 -13 -5 -13 -42 -16
-62 -3 -8 5 -12 -1 -12 -18 0 -26 -14 -35 -25 -16 -10 16 -25 11 -25 -8 0 -15
-7 -18 -39 -16 -22 1 -45 5 -52 9 -7 5 -10 4 -5 -3 8 -14 -10 -25 -26 -16 -21
13 -52 12 -63 -3 -9 -12 -14 -11 -30 5 -11 10 -25 17 -31 15 -6 -2 -22 5 -35
16 -13 11 -18 20 -11 21 22 0 13 15 -21 33 -18 10 -37 27 -42 39 -12 26 -29
25 -33 -2 -3 -20 -32 -29 -32 -10 0 6 -7 10 -15 10 -9 0 -18 13 -22 31 -5 25
-8 28 -15 15 -5 -9 -7 -25 -3 -35 10 -31 -14 -35 -40 -7 l-25 27 6 -31 c4 -18
2 -30 -4 -30 -6 0 -14 17 -18 38 -3 20 -11 49 -17 64 -10 24 -12 25 -24 10 -7
-10 -13 -25 -13 -34 0 -10 -7 -18 -15 -18 -8 0 -15 -6 -15 -14 0 -21 -30 -48
-46 -42 -9 3 -14 -2 -14 -14 0 -22 -25 -27 -33 -7 -3 6 -3 -3 0 -20 4 -26 2
-33 -11 -33 -9 0 -16 3 -16 8 0 4 -11 19 -24 33 -22 24 -28 43 -42 142 -4 20
-11 40 -16 43 -7 4 -8 -5 -3 -25 5 -24 3 -31 -9 -31 -10 0 -18 13 -22 38 -11
59 -44 73 -44 17 0 -24 -6 -39 -20 -47 -11 -7 -20 -18 -20 -25 0 -7 -7 -13
-15 -13 -8 0 -15 -7 -15 -15 0 -19 -19 -19 -26 0 -3 8 -19 21 -35 29 -26 13
-31 13 -36 0 -7 -18 -23 -18 -23 0 0 20 -18 30 -33 17 -17 -14 -82 -12 -67 3
5 5 10 15 10 20 0 6 -9 0 -19 -14 -11 -13 -17 -28 -15 -32 3 -4 -11 -10 -31
-14 -28 -5 -35 -11 -35 -30 0 -34 -19 -30 -27 6 -4 22 -13 32 -32 36 -14 3
-31 7 -38 9 -22 7 -81 -18 -86 -36 -5 -17 -7 -18 -34 -4 -15 8 -34 15 -40 15
-7 0 -13 6 -13 14 0 18 -33 30 -60 21 -15 -5 -20 -2 -20 14 0 23 -18 37 -42
33 -12 -2 -18 8 -23 38 -4 22 -11 40 -16 40 -5 0 -9 9 -9 20 0 20 -1 20 -25 3
-13 -10 -25 -24 -25 -30 0 -7 -4 -13 -10 -13 -5 0 -10 -11 -10 -25 0 -14 -3
-24 -7 -24 -21 3 -33 -2 -33 -16 0 -8 -5 -15 -10 -15 -6 0 -8 -10 -5 -22 6
-28 -3 -43 -34 -53 -22 -7 -24 -5 -18 24 5 23 3 31 -8 31 -9 0 -16 11 -16 28
-2 24 -2 24 -6 4 -4 -19 -7 -21 -19 -11 -11 9 -14 8 -14 -9 0 -28 -23 -43 -71
-48 -34 -3 -42 -1 -46 16 -7 27 -23 25 -24 -2 -1 -22 -1 -21 -13 4 -13 29 -36
25 -33 -6 4 -40 -21 -25 -32 20 -11 42 -13 45 -25 29 -12 -17 -14 -17 -28 3
-8 12 -18 19 -21 16 -4 -4 -9 1 -13 10 -3 9 -10 13 -16 10 -5 -3 -16 2 -23 12
-18 25 -45 9 -58 -32 -5 -16 -10 -35 -13 -42 -3 -10 -11 -8 -34 8 l-30 21 0
-40 c0 -45 -12 -58 -30 -35 -10 11 -15 12 -20 3 -10 -15 -30 -3 -30 19 0 14
-2 14 -9 3 -5 -7 -6 -31 -4 -52 6 -39 -7 -53 -24 -26 -12 19 -63 49 -63 37 0
-6 -8 -10 -17 -8 -10 1 -23 -1 -29 -5 -13 -8 -42 30 -61 78 l-11 30 -1 -27
c-1 -28 -22 -50 -29 -30 -2 7 -10 12 -17 12 -8 0 -19 9 -25 20 -6 10 -16 17
-23 14 -8 -3 -19 10 -27 32 -8 20 -23 42 -32 49 -57 39 -321 314 -378 393 -15
21 -50 58 -78 83 -46 40 -131 143 -174 211 -17 25 -217 237 -287 303 -86 81
-131 128 -131 138 0 5 -26 35 -58 66 -31 31 -113 114 -182 185 -69 71 -152
149 -185 173 -33 25 -86 71 -118 104 -31 32 -64 59 -73 59 -9 0 -29 9 -46 21
-16 12 -32 19 -35 15 -3 -3 -22 4 -41 16 -25 15 -36 18 -41 9 -4 -6 -15 -9
-25 -5 -14 5 -17 2 -14 -13 4 -23 -18 -53 -39 -53 -8 0 -12 -4 -9 -9 3 -5 0
-11 -8 -14 -10 -4 -13 -17 -9 -46 4 -28 2 -41 -6 -41 -7 0 -10 -4 -6 -9 3 -5
-3 -17 -12 -27 -15 -14 -18 -34 -17 -116 1 -76 -2 -98 -12 -98 -11 0 -14 -20
-16 -77 -2 -79 -5 -124 -8 -133 -7 -19 4 -194 16 -252 3 -17 1 -28 -6 -28 -7
0 -10 -18 -7 -50 2 -39 0 -49 -10 -46 -18 7 -17 -32 2 -77 19 -46 19 -77 0
-77 -17 0 -19 -11 -7 -25 8 -9 32 -84 32 -99 0 -3 -7 -6 -16 -6 -10 0 -14 -6
-10 -15 4 -10 -1 -15 -14 -15 -24 0 -25 -4 -3 -41 12 -19 14 -32 8 -37 -6 -4
-11 -47 -12 -95 0 -48 -4 -91 -7 -94 -10 -11 -7 -43 9 -73 10 -19 11 -31 5
-35 -6 -4 -8 -15 -5 -25 3 -11 1 -28 -4 -39 -12 -22 9 -145 31 -184 7 -12 13
-26 14 -32 0 -5 4 -35 9 -65 5 -30 8 -61 6 -67 -1 -7 5 -26 14 -42 19 -37 19
-41 0 -41 -19 0 -19 -2 6 -50 12 -22 18 -47 15 -55 -3 -8 0 -28 6 -43 17 -42
31 -232 17 -232 -13 0 3 -38 22 -56 10 -9 19 -25 19 -34 0 -10 7 -34 15 -54
15 -35 14 -36 -6 -36 -16 0 -19 -4 -14 -20 3 -10 8 -54 11 -97 8 -120 11 -137
29 -173 15 -29 15 -32 1 -27 -14 6 -15 0 -10 -35 5 -30 4 -39 -4 -34 -17 10
-15 5 18 -55 34 -62 36 -69 15 -69 -12 0 -10 -8 10 -37 32 -47 31 -51 -3 -45
-25 5 -26 4 -12 -13 14 -17 13 -18 -2 -12 -15 5 -16 2 -2 -41 7 -26 14 -49 14
-51 0 -2 -11 -1 -25 1 -25 5 -25 4 -21 -43 3 -27 8 -54 12 -60 4 -7 8 -32 9
-56 1 -24 10 -62 20 -83 17 -37 17 -41 2 -58 -19 -21 -21 -98 -4 -120 8 -10 7
-16 -6 -23 -9 -6 -17 -17 -17 -24 0 -8 -5 -15 -11 -15 -8 0 -7 -6 2 -17 8 -9
9 -14 3 -10 -7 4 -14 -2 -17 -15 -5 -17 2 -29 28 -51 36 -30 47 -54 19 -43
-12 5 -15 2 -10 -10 6 -16 -17 -48 -28 -37 -3 3 -1 -8 4 -26 5 -19 5 -31 -1
-31 -5 0 -9 -5 -9 -12 0 -6 3 -9 6 -5 5 5 44 -28 44 -38 0 -3 -18 4 -40 15
-34 17 -40 18 -40 5 0 -10 -9 -15 -26 -15 -24 0 -25 -2 -13 -17 10 -11 11 -17
3 -20 -7 -2 -9 -13 -6 -25 3 -13 -1 -24 -12 -30 -9 -5 -16 -18 -16 -29 0 -11
-5 -17 -10 -14 -6 4 -10 -5 -10 -21 0 -20 -4 -25 -18 -22 -13 4 -17 -1 -16
-19 0 -14 7 -29 15 -34 10 -6 11 -9 1 -9 -10 0 -10 -5 -2 -20 6 -11 7 -20 3
-20 -4 0 -1 -5 7 -10 11 -8 7 -9 -14 -4 -27 6 -29 5 -24 -20 6 -29 5 -30 -24
-15 -27 14 -36 2 -12 -16 14 -11 15 -14 3 -9 -10 3 -20 0 -24 -5 -3 -6 -11 -9
-16 -6 -5 4 -9 -3 -9 -14 0 -12 -7 -21 -15 -21 -8 0 -12 -6 -9 -14 3 -8 -3
-16 -16 -19 -15 -4 -19 -10 -14 -18 10 -16 12 -79 3 -73 -4 2 -14 1 -23 -2
-12 -5 -13 -11 -6 -24 15 -28 12 -50 -6 -50 -14 0 -14 -3 -4 -15 10 -12 10
-15 -4 -15 -19 0 -21 -11 -4 -28 7 -7 8 -12 4 -12 -5 0 -3 -7 4 -15 10 -12 10
-15 -1 -15 -8 0 -3 -9 11 -20 20 -16 22 -20 7 -20 -18 0 -19 -20 -2 -32 6 -5
5 -8 -3 -8 -7 0 -11 -4 -8 -9 3 -4 -6 -13 -20 -19 -19 -9 -24 -18 -21 -38 2
-14 10 -30 18 -35 12 -7 12 -9 -1 -9 -8 0 -2 -9 15 -20 l30 -20 -30 -1 c-29 0
-28 -1 16 -22 25 -12 54 -30 63 -39 17 -17 16 -18 -4 -18 -12 0 -18 -4 -15
-10 3 -5 -1 -10 -10 -10 -8 0 -18 -7 -21 -15 -4 -8 -12 -15 -20 -15 -8 0 -23
-9 -34 -20 -17 -17 -17 -20 -4 -20 10 0 14 -6 11 -14 -4 -9 5 -18 22 -25 26
-11 41 -51 20 -51 -6 0 -3 -7 5 -16 20 -20 20 -34 1 -34 -11 0 -14 -7 -9 -24
4 -18 1 -25 -15 -29 -25 -6 -28 -24 -5 -29 20 -4 29 -59 11 -70 -8 -5 -5 -8 8
-8 19 -1 19 -2 -1 -10 -31 -12 -38 -75 -10 -88 17 -7 16 -9 -12 -21 -18 -8
-32 -19 -33 -25 -7 -79 -6 -85 20 -92 15 -3 20 -9 13 -11 -9 -4 -10 -9 -2 -17
7 -10 0 -16 -29 -25 -45 -13 -65 -56 -36 -77 9 -7 12 -15 6 -18 -6 -4 -4 -16
5 -34 7 -15 14 -32 14 -39 0 -7 13 -27 29 -45 15 -18 34 -44 40 -56 11 -21 19
-23 57 -20 50 4 55 -3 19 -22 -36 -19 -31 -27 20 -27 31 0 46 5 50 16 6 15 7
15 18 0 7 -9 25 -19 40 -23 19 -4 27 -12 24 -21 -7 -17 22 -43 31 -28 4 5 45
13 92 16 47 4 117 13 155 21 64 14 254 42 450 66 44 6 91 13 105 16 14 3 35 6
48 6 12 0 22 4 22 9 0 13 60 41 75 35 8 -3 19 1 25 9 6 8 35 15 63 17 54 3 73
21 35 33 -31 9 -90 6 -105 -7 -9 -7 -13 -7 -13 1 0 6 -15 11 -34 11 -19 0 -38
5 -41 10 -6 10 7 14 33 11 7 -1 20 6 30 15 16 16 17 16 20 1 4 -21 8 -21 37 1
16 13 21 23 14 33 -12 18 -11 29 1 29 14 0 84 70 76 77 -3 3 -18 7 -33 9 -66
6 -159 27 -172 39 -11 11 -2 13 50 14 105 1 108 1 102 20 -4 9 -3 13 2 9 11
-11 65 20 65 37 0 9 11 21 25 27 14 6 25 17 25 25 0 7 5 13 12 13 6 0 1 11
-11 24 -14 15 -19 26 -12 31 6 3 11 1 11 -4 0 -6 5 -11 10 -11 6 0 10 6 10 14
0 7 7 19 16 27 8 7 14 20 11 28 -3 11 4 16 21 18 13 0 31 7 38 15 12 12 12 17
-2 36 -8 12 -22 22 -30 22 -13 0 -13 2 1 16 13 13 13 19 3 32 -11 13 -10 15
10 10 37 -10 204 57 215 86 4 9 3 16 -2 16 -4 0 -8 17 -9 38 0 29 2 33 8 17 8
-19 9 -19 9 3 1 25 22 52 42 52 26 0 80 42 75 59 -6 19 33 41 73 41 l26 0 -30
25 -30 25 40 -6 c22 -4 44 -10 49 -15 13 -12 73 -11 81 1 3 5 19 7 35 3 17 -3
46 1 70 11 22 9 40 13 40 10 0 -4 7 -1 15 6 8 7 22 10 30 6 8 -3 15 -2 15 3 0
9 57 26 125 36 21 4 51 15 66 25 16 12 29 16 35 10 6 -6 22 -6 42 -1 28 8 32
7 32 -9 0 -27 32 -35 50 -13 8 11 18 20 23 20 48 8 74 20 91 41 27 35 56 93
51 103 -3 4 -1 10 5 14 6 4 7 12 0 24 -6 12 -5 22 2 29 15 15 24 117 15 172
-2 14 0 31 6 37 6 9 5 20 -5 35 -17 27 -32 77 -29 96 1 8 -7 16 -19 19 -13 3
-19 11 -16 19 3 8 -13 33 -34 56 -22 22 -40 47 -40 55 0 7 -3 13 -7 13 -5 0
-17 13 -27 29 -11 15 -37 39 -58 52 -20 13 -42 36 -47 51 -6 16 -15 28 -21 28
-6 0 -9 8 -6 18 7 22 -59 96 -76 86 -7 -5 -9 0 -6 14 4 12 2 25 -3 28 -12 7
-11 54 1 54 19 0 10 49 -11 60 -11 7 -29 19 -39 28 -9 9 -29 26 -43 37 -14 11
-26 25 -27 31 0 7 -7 14 -15 18 -22 8 -18 26 5 26 11 0 20 -7 20 -15 0 -8 5
-15 10 -15 6 0 10 5 10 10 0 6 9 10 20 10 11 0 20 7 20 15 0 8 -4 15 -10 15
-18 0 -10 42 12 59 l21 18 -20 34 c-16 27 -20 48 -18 99 1 43 -3 73 -12 88 -8
13 -12 30 -9 37 6 17 42 8 59 -14 16 -21 56 -25 63 -6 4 8 10 13 14 10 4 -3
13 2 20 10 7 8 19 15 26 15 8 0 14 5 14 11 0 8 4 8 14 -1 12 -9 15 -8 15 7 0
40 10 76 23 84 7 5 14 13 14 19 1 5 2 11 4 13 9 11 3 57 -7 57 -15 0 -17 38
-4 59 5 8 16 11 30 6 18 -5 21 -2 21 24 0 16 -4 33 -10 36 -5 3 -7 19 -3 35 4
25 2 30 -13 30 -14 0 -16 2 -5 13 10 10 15 8 27 -7 8 -11 14 -27 14 -36 0 -8
12 -29 27 -45 l28 -29 7 47 c3 27 11 54 17 61 6 7 9 15 7 17 -2 2 -6 32 -9 67
l-7 62 25 -6 c21 -5 25 -3 26 17 0 13 2 57 3 96 3 77 9 94 28 75 7 -7 20 -12
30 -12 10 0 21 -7 24 -15 4 -8 17 -15 30 -15 18 0 24 -6 24 -21 0 -11 5 -17
10 -14 6 4 8 10 5 15 -3 5 -1 11 5 15 5 3 10 15 10 26 0 23 18 26 26 4 4 -9
19 -15 35 -15 34 0 35 2 12 36 -11 18 -16 44 -15 86 2 70 6 78 31 71 19 -5 38
-74 26 -94 -9 -14 11 -11 23 4 8 10 14 47 22 125 0 1 4 2 10 2 5 0 9 -10 9
-22 -2 -39 25 -128 38 -128 19 0 30 57 22 114 -4 37 -2 60 10 83 19 38 38 43
43 11 2 -17 9 -22 26 -20 17 3 22 -2 22 -18 0 -13 5 -20 13 -17 6 2 11 18 11
36 -2 27 1 31 22 31 22 0 23 3 14 20 -8 16 -8 18 4 14 8 -3 16 -15 18 -27 2
-12 8 -22 13 -22 6 0 19 -6 30 -12 18 -11 18 -12 3 -13 -10 0 -18 -4 -18 -10
0 -5 6 -7 13 -5 6 3 20 -9 29 -26 11 -18 22 -27 29 -23 8 5 10 -1 7 -20 -3
-17 0 -33 10 -42 10 -10 11 -19 5 -25 -6 -6 -8 -32 -5 -59 3 -35 0 -57 -12
-74 -11 -17 -13 -32 -7 -48 4 -12 4 -38 0 -57 -4 -19 -6 -38 -3 -42 2 -4 -3
-12 -11 -19 -8 -7 -12 -16 -9 -22 3 -5 1 -15 -5 -22 -7 -8 -10 -20 -9 -27 2
-8 -2 -13 -9 -12 -7 2 -10 -4 -7 -12 4 -8 1 -15 -5 -15 -6 0 -1 -16 10 -37 12
-21 17 -39 12 -40 -16 -6 -2 -63 15 -63 12 0 13 -3 4 -12 -17 -17 -15 -39 2
-32 22 9 48 -39 52 -97 1 -28 8 -57 14 -64 8 -9 6 -14 -9 -18 -14 -3 -18 -11
-14 -26 4 -16 0 -21 -13 -23 -34 -2 -39 -3 -51 -11 -18 -11 -16 -28 2 -21 8 4
15 1 15 -5 0 -6 -4 -11 -10 -11 -5 0 -10 -7 -10 -16 0 -8 5 -12 10 -9 6 4 10
-5 10 -20 0 -14 6 -28 14 -31 8 -3 12 -12 9 -20 -3 -8 0 -21 7 -29 6 -8 9 -19
5 -25 -8 -14 8 -13 22 1 7 7 9 24 6 39 -5 25 -3 27 20 23 14 -3 27 -14 30 -24
3 -11 1 -16 -4 -13 -9 5 -5 -31 8 -66 3 -8 7 -24 8 -35 2 -11 6 -34 8 -52 4
-22 1 -33 -9 -37 -8 -3 -14 -15 -14 -26 0 -12 4 -19 9 -16 5 3 8 0 7 -7 -2
-21 18 -21 29 0 16 31 44 55 56 47 8 -4 7 -9 -2 -15 -9 -5 -9 -9 -3 -9 7 0 12
-17 12 -40 0 -22 3 -44 7 -49 3 -5 1 -12 -5 -16 -5 -3 -10 -26 -10 -51 0 -33
4 -44 16 -44 12 0 14 -12 11 -71 -3 -67 6 -96 23 -69 11 17 30 3 30 -21 0 -11
4 -18 9 -14 11 6 26 -56 18 -77 -2 -7 2 -25 9 -40 8 -15 11 -34 8 -42 -3 -9
-1 -16 5 -16 6 0 11 -7 11 -15 0 -7 6 -18 13 -22 33 -21 48 -93 38 -181 -6
-53 -5 -65 11 -82 21 -23 35 -25 40 -8 6 17 68 -28 68 -49 0 -26 38 -79 66
-92 23 -10 29 -9 44 9 9 11 26 20 36 20 12 0 15 -3 7 -11 -15 -15 -4 -61 13
-55 8 3 14 2 14 -3 0 -4 11 -13 25 -19 13 -6 34 -32 47 -59 20 -42 32 -53 100
-88 95 -49 111 -65 128 -116 8 -23 25 -48 39 -57 15 -9 28 -19 31 -22 3 -3 21
-14 41 -24 29 -15 40 -16 57 -7 12 6 22 8 22 2 0 -5 6 -11 14 -14 9 -4 12 0 9
12 -2 10 8 30 26 48 16 17 26 34 23 39 -4 4 11 4 32 1 22 -4 43 -12 47 -18 4
-7 14 -9 24 -6 9 4 33 -2 54 -13 21 -10 41 -16 45 -13 3 3 14 -3 23 -14 11
-12 37 -23 66 -27 26 -4 63 -14 81 -21 18 -8 42 -12 53 -9 14 4 33 -7 64 -36
24 -22 54 -50 65 -60 24 -22 26 -56 4 -70 -8 -5 -12 -10 -10 -12 48 -31 146
-65 135 -47 -4 5 -1 9 4 9 20 0 26 -5 23 -21 -2 -9 4 -22 12 -28 32 -27 129
-81 136 -76 4 3 14 -2 21 -11 18 -22 68 -46 79 -39 12 7 14 -8 3 -19 -14 -14
-12 -74 3 -80 8 -3 14 -12 14 -20 0 -9 7 -12 20 -9 17 4 19 0 19 -28 0 -40 5
-66 14 -75 4 -4 4 -17 1 -28 -4 -19 3 -24 65 -44 67 -22 86 -35 60 -44 -9 -3
-8 -10 2 -25 10 -18 10 -24 0 -37 -9 -10 -19 -13 -28 -7 -16 9 -63 3 -63 -8 0
-14 61 -52 92 -57 18 -4 38 -12 43 -18 19 -20 54 -36 69 -30 17 6 31 -12 16
-21 -21 -13 -9 -25 33 -32 23 -4 45 -6 50 -5 4 1 7 -5 7 -13 0 -11 9 -14 33
-11 17 2 40 -1 50 -6 10 -5 37 -11 60 -13 97 -8 253 -26 272 -32 35 -11 68
-15 135 -19 60 -3 82 -6 148 -20 13 -2 20 -9 17 -14 -4 -6 -16 -8 -28 -5 -12
3 -69 7 -127 9 -58 3 -143 10 -190 16 -172 23 -225 28 -232 24 -3 -2 -17 0
-30 5 -13 5 -75 12 -138 15 -63 3 -130 9 -149 12 -23 5 -36 2 -42 -7 -8 -12
-12 -11 -23 4 -11 15 -19 17 -33 8 -10 -6 -14 -11 -8 -11 5 0 -1 -7 -13 -16
-15 -10 -32 -14 -49 -9 -24 6 -24 5 -9 -10 15 -16 56 -25 186 -44 30 -4 68
-13 84 -20 16 -6 36 -9 44 -6 8 3 20 1 26 -4 6 -4 43 -13 81 -19 39 -6 79 -13
90 -16 67 -15 84 -20 125 -33 25 -8 63 -17 84 -20 22 -2 48 -9 57 -14 10 -5
27 -9 38 -9 12 0 30 -9 41 -20 11 -11 27 -20 35 -20 8 0 15 -4 15 -10 0 -5 9
-10 20 -10 11 0 20 -5 20 -11 0 -8 11 -9 31 -5 18 3 38 1 45 -4 8 -8 14 -8 19
0 3 5 17 10 31 10 14 0 23 4 19 9 -3 5 -1 12 4 16 6 3 8 12 5 19 -4 10 8 15
39 20 58 9 129 54 122 78 -5 13 3 18 40 23 50 8 64 19 39 33 -14 8 -14 11 -3
18 8 5 23 10 34 11 11 2 22 8 23 13 2 6 9 16 16 23 19 18 28 77 13 78 -6 0 1
6 16 13 16 7 32 17 35 22 4 5 21 17 37 26 17 9 32 25 34 35 2 10 8 22 15 26 8
6 8 10 -1 13 -7 3 1 17 22 36 19 16 32 35 29 40 -4 6 6 21 22 34 24 19 26 23
10 24 -11 0 -16 5 -13 14 4 10 -4 18 -24 25 -39 13 -37 28 8 46 l37 16 -29 24
c-17 13 -36 24 -44 25 -9 0 -11 6 -6 18 4 9 8 25 9 34 1 10 5 21 9 24 4 4 2
12 -3 19 -7 8 -2 15 16 24 16 7 24 17 20 26 -3 8 1 18 8 22 8 5 16 19 18 33 2
16 12 27 28 31 l25 7 -23 7 -23 8 21 22 c18 19 19 23 6 28 -19 7 -10 37 10 37
22 0 10 41 -17 56 -21 11 -22 13 -6 19 22 9 22 20 -3 43 -18 17 -19 20 -5 32
11 9 12 16 5 25 -8 9 -8 15 0 20 5 3 7 17 4 30 -3 12 -1 26 4 29 6 3 8 15 5
26 -3 12 0 20 8 20 8 0 6 5 -6 13 -11 9 -14 16 -7 20 13 9 4 47 -12 47 -6 0
-4 5 4 10 9 6 11 10 3 10 -7 0 -10 6 -7 14 4 11 -5 17 -31 22 l-37 7 23 21
c13 11 29 36 36 55 11 30 10 34 -7 38 -11 3 -20 9 -20 14 0 5 -8 9 -18 9 -31
0 -33 12 -5 36 26 22 26 24 10 42 -15 16 -15 21 -2 38 22 29 19 31 -38 38 -49
6 -100 25 -69 26 8 0 25 9 39 20 l25 19 -26 7 c-25 6 -25 7 -9 20 11 8 13 13
6 14 -7 0 -13 6 -13 14 0 9 -16 17 -40 21 -34 6 -39 9 -29 21 9 11 9 14 -1 14
-10 0 -10 3 -1 14 7 8 8 17 3 20 -5 3 -12 19 -15 34 -4 19 -14 31 -28 35 -14
4 -20 11 -16 20 3 8 -1 24 -9 35 -8 11 -11 27 -8 35 4 11 -1 13 -20 10 -23 -5
-26 -2 -26 21 0 15 5 36 10 47 8 14 7 19 -3 19 -7 0 -18 -5 -24 -11 -6 -6 -19
-9 -28 -7 -15 3 -15 5 3 26 11 12 24 22 30 22 5 0 8 9 5 20 -6 23 -8 24 -35 9
-14 -7 -23 -8 -30 -1 -6 6 -16 9 -22 7 -16 -6 -74 46 -58 52 17 7 42 32 42 44
0 14 -62 10 -94 -6 -15 -8 -30 -15 -32 -15 -10 0 -2 19 16 40 11 12 22 31 25
41 4 11 11 19 16 19 5 0 9 9 9 19 0 22 -29 36 -44 21 -5 -5 -17 -10 -25 -10
-12 1 -11 4 4 13 11 7 21 22 23 35 2 22 -1 23 -29 17 -22 -5 -29 -4 -25 4 4 6
11 9 16 6 4 -3 11 2 14 11 9 23 7 36 -4 29 -5 -3 -10 3 -10 14 0 23 25 29 34
9 3 -7 4 -4 3 7 -2 11 3 32 10 48 12 24 12 28 -2 33 -8 3 -15 12 -15 20 0 8
-4 14 -10 14 -5 0 -10 7 -10 15 0 9 6 12 15 9 11 -4 15 0 15 16 0 14 -5 20
-12 16 -7 -3 -21 -9 -30 -12 -10 -4 -18 -11 -18 -17 0 -7 -4 -7 -12 1 -10 10
-5 19 25 46 20 18 37 38 37 44 0 7 4 12 10 12 13 0 44 49 37 57 -4 3 -12 1
-20 -5 -15 -13 -57 -5 -57 10 0 5 9 12 20 15 20 5 29 43 10 43 -18 0 -11 15
13 25 24 11 32 51 14 73 -7 9 -7 16 1 24 7 7 7 17 0 34 -11 24 -38 34 -38 14
0 -5 -7 -10 -15 -10 -17 0 -20 16 -4 26 6 3 9 15 6 25 -3 10 -1 22 4 25 17 10
10 36 -8 31 -18 -3 -73 18 -73 29 0 3 9 17 20 31 11 14 20 34 20 44 0 11 5 20
10 20 6 1 15 3 20 4 6 1 15 3 20 4 6 0 10 7 10 14 0 19 59 60 76 53 8 -3 14
-10 14 -15 0 -6 8 -7 17 -4 12 5 15 2 11 -8 -6 -16 28 -19 50 -5 7 4 12 1 12
-8 0 -8 6 -17 13 -19 6 -3 0 -6 -15 -6 -23 -1 -28 -6 -28 -26 0 -16 6 -25 16
-25 17 0 14 -21 -11 -72 -12 -24 -11 -28 6 -33 10 -4 23 -4 29 0 5 3 23 -13
39 -36 l30 -41 21 34 c11 18 20 39 20 46 0 7 7 20 15 28 8 9 15 24 15 35 0 11
5 29 10 40 6 11 12 43 13 72 2 44 -3 58 -27 90 -19 25 -26 41 -19 45 6 4 14
24 18 45 8 42 32 60 47 34 5 -10 12 -17 16 -17 12 0 40 54 35 66 -2 7 8 29 22
49 14 22 25 52 25 71 0 18 5 36 10 39 6 3 10 13 10 22 0 9 11 44 25 78 13 34
26 84 27 111 2 27 10 60 17 72 15 28 7 72 -14 72 -21 0 -19 7 16 43 39 41 50
70 48 126 -3 105 11 329 23 362 13 36 16 366 4 459 -6 42 -14 229 -17 394 -1
38 -6 83 -11 100 -6 17 -14 49 -18 71 -13 62 -32 128 -41 147 -10 20 -25 134
-43 320 -12 125 -16 143 -52 215 -37 74 -41 78 -76 81 -33 3 -41 -3 -115 -78z
m-6573 -20 c0 -5 -5 -10 -11 -10 -5 0 -7 5 -4 10 3 6 8 10 11 10 2 0 4 -4 4
-10z m105 -80 c3 -5 0 -10 -9 -10 -8 0 -22 -3 -30 -6 -12 -5 -15 -2 -10 10 7
18 39 22 49 6z m-315 -142 c0 -6 -7 -5 -15 2 -8 7 -15 17 -15 22 0 6 7 5 15
-2 8 -7 15 -17 15 -22z m-23 -343 c0 -8 -6 -15 -13 -15 -15 0 -26 15 -17 24
12 11 30 6 30 -9z m23 -47 c0 -6 7 -19 15 -28 14 -15 14 -18 0 -30 -10 -8 -15
-9 -15 -1 0 6 -7 11 -16 11 -10 0 -14 6 -11 14 3 8 1 17 -6 20 -9 3 -8 8 3 15
20 14 30 14 30 -1z m-20 -192 c0 -11 -19 -15 -25 -6 -3 5 1 10 9 10 9 0 16 -2
16 -4z m-7 -216 c-3 -11 -7 -20 -9 -20 -2 0 -4 9 -4 20 0 11 4 20 9 20 5 0 7
-9 4 -20z m-36 -72 c-3 -8 -6 -5 -6 6 -1 11 2 17 5 13 3 -3 4 -12 1 -19z m13
-34 c0 -9 8 -23 18 -30 13 -10 14 -12 2 -11 -8 2 -21 6 -27 10 -15 10 -17 47
-3 47 6 0 10 -7 10 -16z m460 -5 c0 -11 -4 -17 -10 -14 -5 3 -10 13 -10 21 0
8 5 14 10 14 6 0 10 -9 10 -21z m-37 -13 c7 -18 -1 -26 -27 -26 -17 0 -18 -2
-6 -10 12 -8 11 -10 -6 -10 -24 0 -62 -26 -52 -35 4 -4 15 -4 25 0 18 8 41 8
81 -1 17 -3 22 0 22 16 0 13 9 22 25 26 16 4 24 12 23 23 -2 10 5 17 20 19 23
3 23 3 8 -26 -8 -16 -22 -32 -31 -36 -23 -9 -9 -25 16 -19 15 4 20 2 17 -7 -6
-18 -56 -32 -89 -25 -16 4 -30 0 -38 -9 -11 -13 -7 -16 23 -21 19 -4 41 -3 48
1 30 20 125 13 112 -8 -5 -7 -3 -8 7 -2 18 11 99 17 99 6 0 -4 -5 -13 -12 -20
-8 -8 -8 -15 2 -27 10 -13 9 -15 -8 -15 -12 0 -24 -5 -27 -10 -4 -6 -15 -8
-25 -5 -17 5 -50 -17 -50 -34 0 -4 40 -7 89 -7 61 1 94 -3 103 -12 10 -10 10
-15 1 -20 -15 -9 -125 -8 -140 1 -5 3 -23 2 -39 -3 -24 -7 -25 -8 -6 -9 12 -1
22 -5 22 -11 0 -5 -10 -11 -22 -11 -13 -1 -30 -3 -38 -4 -8 -1 -21 -3 -28 -4
-20 -2 -4 -21 18 -21 10 0 23 -7 28 -16 6 -11 11 -13 16 -5 10 16 26 14 26 -4
0 -10 10 -15 33 -15 41 0 77 -10 77 -21 0 -5 -7 -9 -16 -9 -10 0 -14 -6 -10
-15 4 -10 -1 -15 -14 -15 -11 0 -20 7 -20 15 0 19 -24 19 -39 1 -13 -15 1 -32
18 -21 5 3 16 -2 25 -10 9 -9 36 -17 66 -18 27 -1 50 -5 50 -9 0 -3 24 -9 53
-11 121 -12 247 -40 247 -54 0 -7 7 -16 15 -19 12 -5 12 -8 -2 -22 -12 -12
-34 -16 -92 -15 -54 1 -70 -1 -53 -7 12 -5 22 -16 22 -25 0 -14 13 -19 47 -18
6 0 9 -6 6 -14 -4 -11 0 -13 21 -7 15 3 26 2 26 -4 0 -5 17 -14 37 -19 45 -10
51 -25 22 -54 -15 -15 -24 -18 -27 -11 -5 15 -32 16 -32 2 0 -13 48 -32 61
-24 5 3 9 -4 9 -15 0 -15 6 -21 21 -21 15 0 20 -6 18 -22 -4 -28 26 -75 51
-83 19 -6 37 -42 26 -52 -3 -3 -17 2 -30 11 -14 9 -31 16 -38 16 -8 0 -21 9
-31 20 -20 23 -35 25 -61 5 -10 -8 -23 -12 -29 -8 -5 3 -13 -1 -18 -8 -7 -11
-9 -10 -9 4 0 9 11 23 25 29 14 6 25 15 25 20 0 5 -11 13 -25 18 -14 5 -25 14
-25 20 0 18 -28 11 -45 -12 -12 -16 -19 -19 -22 -10 -3 6 -11 12 -18 12 -8 0
-20 6 -27 13 -16 15 -118 37 -118 25 0 -5 14 -11 30 -14 17 -4 30 -11 30 -16
0 -15 -28 -39 -32 -27 -2 5 -23 12 -48 14 -25 2 -46 9 -48 15 -2 5 -8 10 -14
10 -6 0 -5 -6 2 -15 7 -9 9 -19 5 -23 -4 -4 -14 3 -22 16 -20 29 -30 28 -35
-3 -4 -19 -1 -25 12 -25 10 0 23 -7 30 -15 17 -20 -8 -21 -37 0 -23 16 -37 55
-20 55 7 0 3 7 -7 15 -15 11 -22 12 -27 4 -4 -7 -14 -9 -23 -6 -21 8 -33 40
-17 45 9 3 9 7 0 18 -9 11 -8 15 5 20 19 7 21 30 4 37 -8 2 -9 8 -4 13 5 5 11
4 13 -3 5 -15 73 -18 73 -3 0 6 -7 10 -15 10 -8 0 -15 7 -15 16 0 10 -6 13
-19 9 -48 -15 -114 37 -109 88 2 26 9 34 36 43 l33 10 -44 22 c-49 24 -87 28
-104 11 -9 -9 -24 -6 -58 11 -43 21 -47 21 -58 5 -12 -15 -15 -15 -47 2 -19
10 -36 21 -38 26 -2 4 -10 7 -18 7 -8 0 -14 5 -14 10 0 6 9 10 19 10 11 0 22
4 25 9 8 13 -13 27 -62 42 -36 10 -42 16 -38 33 3 11 0 26 -5 33 -8 9 -4 14
15 19 29 7 34 19 11 28 -8 3 -15 10 -15 16 0 17 22 11 41 -12 11 -11 22 -18
26 -14 4 4 1 11 -7 16 -8 5 -12 11 -10 13 9 8 100 37 118 37 26 1 65 35 67 59
2 23 -5 27 -22 10 -8 -8 -17 -8 -31 0 -28 15 -31 14 -25 -9 7 -26 -5 -25 -32
0 -20 18 -23 19 -35 5 -14 -17 -40 -20 -40 -5 0 5 -8 7 -17 4 -16 -5 -16 -4
-2 8 9 7 14 18 12 24 -6 19 42 63 76 70 17 4 31 10 31 15 0 5 7 9 16 9 9 0 29
11 46 25 34 29 44 31 51 11z m187 -16 c0 -5 -2 -10 -4 -10 -3 0 -8 5 -11 10
-3 6 -1 10 4 10 6 0 11 -4 11 -10z m5810 -35 c0 -8 -7 -15 -15 -15 -8 0 -15 7
-15 15 0 8 7 15 15 15 8 0 15 -7 15 -15z m102 -8 c6 -9 10 -9 20 1 16 16 39
16 36 0 -2 -8 9 -13 27 -13 43 -2 104 -16 111 -26 3 -5 0 -9 -5 -9 -21 0 -11
-27 14 -38 14 -6 25 -16 25 -21 0 -5 9 -7 20 -4 23 6 28 -15 5 -23 -23 -9 -18
-29 15 -64 37 -39 39 -60 5 -60 -14 0 -25 4 -25 8 0 13 -69 32 -76 21 -3 -6
-15 -7 -27 -3 -18 6 -20 4 -10 -7 9 -12 6 -14 -20 -14 -21 0 -34 6 -39 18 -9
21 -34 22 -42 2 -6 -17 -26 -20 -26 -4 0 5 5 7 10 4 6 -3 10 0 10 8 0 16 -36
32 -92 42 -34 5 -55 25 -26 25 6 0 9 3 6 6 -4 3 -21 -2 -38 -11 -31 -16 -33
-16 -52 5 -26 28 -16 36 27 23 19 -6 35 -7 35 -3 0 5 -5 10 -12 12 -18 6 0 28
23 28 11 0 27 7 35 15 9 8 24 15 35 15 10 0 19 5 19 10 0 6 -14 10 -31 10 -25
0 -29 3 -24 19 3 11 1 22 -5 26 -5 3 -10 11 -10 16 0 14 72 2 82 -14z m-93
-77 c1 -12 -2 -11 -15 2 -11 11 -14 23 -9 35 7 17 8 17 15 -2 5 -11 9 -27 9
-35z m-142 -46 c5 -15 -20 -24 -37 -14 -7 4 -9 13 -5 19 8 14 37 11 42 -5z
m-5517 -40 c0 -10 -7 -14 -22 -12 -32 5 -35 28 -4 28 17 0 26 -5 26 -16z
m5340 -64 c0 -5 -9 -10 -21 -10 -11 0 -17 5 -14 10 3 6 13 10 21 10 8 0 14 -4
14 -10z m165 -10 c3 -5 2 -10 -4 -10 -5 0 -13 5 -16 10 -3 6 -2 10 4 10 5 0
13 -4 16 -10z m-6216 -39 c8 -14 6 -23 -9 -36 -16 -14 -17 -21 -8 -32 9 -11 9
-17 -3 -24 -8 -5 -19 -9 -26 -9 -6 0 -14 -6 -16 -12 -3 -7 -6 -4 -7 7 -1 11
-3 30 -6 43 -2 12 1 22 6 22 6 0 8 11 4 24 -4 18 -1 25 13 29 34 9 42 7 52
-12z m71 -21 c0 -5 -5 -10 -11 -10 -5 0 -7 5 -4 10 3 6 8 10 11 10 2 0 4 -4 4
-10z m646 -24 c18 -10 33 -12 44 -6 10 5 20 7 23 3 4 -3 13 0 21 6 18 15 56 5
56 -14 0 -17 -17 -29 -22 -15 -4 14 -84 -25 -91 -45 -9 -22 -26 -18 -20 5 4
15 0 20 -16 20 -14 0 -21 -6 -21 -20 0 -11 -4 -20 -9 -20 -12 0 -21 39 -10 45
4 3 5 13 2 22 -5 12 -3 14 7 8 10 -6 12 -4 7 8 -8 21 -6 21 29 3z m5854 -31
c0 -8 -4 -15 -10 -15 -5 0 -10 7 -10 15 0 8 5 15 10 15 6 0 10 -7 10 -15z
m-26 -29 l31 6 -31 -29 c-18 -15 -37 -39 -44 -52 -11 -20 -9 -27 13 -48 17
-17 29 -23 38 -17 23 14 52 4 77 -26 13 -16 37 -32 53 -35 34 -8 45 -21 24
-29 -8 -3 -17 -1 -21 5 -4 7 -10 7 -18 0 -9 -8 -29 -2 -71 19 -45 23 -61 27
-67 18 -12 -19 -10 -29 9 -50 13 -15 14 -18 2 -18 -8 0 -20 5 -27 12 -9 9 -12
6 -12 -14 0 -24 -2 -25 -44 -21 -40 5 -45 3 -66 -27 -20 -28 -24 -30 -37 -17
-9 8 -12 20 -8 27 6 9 9 9 16 -1 11 -18 21 -6 25 31 4 34 -10 39 -28 10 -13
-21 -38 -27 -38 -10 0 5 -6 7 -13 4 -7 -2 -26 2 -42 10 -16 8 -32 13 -37 10
-4 -3 -8 2 -8 10 0 8 -7 22 -16 31 -15 15 -15 17 2 30 11 8 27 15 36 15 10 0
20 10 24 24 5 20 12 24 42 23 24 0 42 -7 50 -19 18 -25 32 -23 32 5 0 15 11
28 35 41 19 11 35 23 35 28 0 14 -37 9 -50 -7 -7 -8 -16 -12 -21 -9 -5 3 -9
-2 -9 -10 0 -22 -12 -20 -38 4 -22 21 -30 50 -13 50 5 0 16 3 24 6 9 3 17 -3
22 -18 6 -18 8 -19 12 -7 7 27 45 31 69 8 17 -16 23 -17 32 -6 6 7 8 24 5 38
-5 19 -3 22 7 12 7 -7 26 -10 44 -7z m-6571 -53 c-19 -7 -26 -66 -14 -109 9
-33 8 -41 -6 -52 -19 -13 -30 -2 -38 38 -2 11 -6 24 -10 29 -3 6 1 13 8 18 22
13 32 53 13 53 -9 0 -16 7 -16 16 0 12 6 15 26 10 17 -5 25 -3 23 6 -4 32 3
42 14 19 9 -19 9 -25 0 -28z m472 -53 c18 -20 18 -20 -6 -16 -13 3 -27 5 -31
5 -5 1 -8 8 -8 16 0 21 24 19 45 -5z m5710 -76 c-10 -7 -22 -11 -27 -8 -5 3
-1 12 9 19 10 7 22 11 27 8 5 -4 1 -12 -9 -19z m-5085 12 c0 -3 -4 -8 -10 -11
-5 -3 -10 -1 -10 4 0 6 5 11 10 11 6 0 10 -2 10 -4z m-660 -26 c0 -5 -4 -10
-9 -10 -6 0 -13 5 -16 10 -3 6 1 10 9 10 9 0 16 -4 16 -10z m-100 -10 c0 -5
-4 -10 -10 -10 -5 0 -10 5 -10 10 0 6 5 10 10 10 6 0 10 -4 10 -10z m130 0 c0
-5 -5 -10 -11 -10 -5 0 -7 5 -4 10 3 6 8 10 11 10 2 0 4 -4 4 -10z m812 -12
c-7 -7 -12 -8 -12 -2 0 14 12 26 19 19 2 -3 -1 -11 -7 -17z m5384 -49 c3 -5
-6 -9 -20 -9 -14 0 -27 4 -30 9 -3 5 6 9 19 9 14 0 28 -4 31 -9z m-6116 -29
c0 -5 -9 -6 -20 -3 -11 3 -17 9 -15 14 7 10 35 1 35 -11z m5790 1 c0 -11 -4
-23 -10 -26 -6 -4 -10 5 -10 19 0 14 5 26 10 26 6 0 10 -9 10 -19z m-5833 -43
c-3 -8 -6 -5 -6 6 -1 11 2 17 5 13 3 -3 4 -12 1 -19z m5734 -18 c13 -10 19
-19 13 -20 -17 0 -25 -27 -15 -52 7 -19 16 -23 58 -24 42 0 50 2 46 16 -3 10
2 20 11 23 21 8 48 -3 43 -17 -3 -7 9 -12 30 -13 19 -1 58 -11 86 -22 29 -11
73 -26 100 -33 26 -7 47 -18 47 -24 0 -7 6 -14 13 -17 8 -3 9 -8 2 -15 -7 -8
-30 -4 -80 14 -71 24 -155 30 -155 10 0 -6 -6 -4 -13 4 -17 21 -87 44 -99 32
-6 -6 -26 -6 -56 0 -26 6 -56 10 -67 10 -10 -1 -25 4 -32 9 -20 17 -35 0 -28
-32 5 -24 4 -28 -9 -23 -9 3 -16 10 -16 15 0 4 -10 13 -21 20 -18 9 -24 8 -30
-4 -11 -18 -44 -12 -71 15 -17 17 -41 23 -80 20 -12 -1 -18 5 -18 18 0 17 6
19 45 18 25 -1 45 -7 45 -12 0 -6 5 -5 12 2 7 7 28 12 48 12 83 0 105 10 123
51 19 44 34 48 68 19z m-6241 -60 c0 -5 -4 -10 -10 -10 -5 0 -10 5 -10 10 0 6
5 10 10 10 6 0 10 -4 10 -10z m290 0 c0 -5 -4 -10 -10 -10 -5 0 -10 5 -10 10
0 6 5 10 10 10 6 0 10 -4 10 -10z m588 -32 c-6 -18 -28 -21 -28 -4 0 9 7 16
16 16 9 0 14 -5 12 -12z m138 -36 c-4 -3 -12 0 -19 7 -9 9 -9 14 3 21 11 7 16
5 18 -6 2 -9 1 -18 -2 -22z m-400 17 c3 -6 -1 -18 -10 -27 -15 -15 -18 -15
-26 -2 -5 9 -5 19 2 27 13 16 25 17 34 2z m269 -29 c3 -6 3 -19 0 -30 -5 -15
-12 -19 -28 -15 -12 3 -34 7 -50 9 -38 4 -46 16 -11 16 17 0 39 7 50 15 23 17
31 18 39 5z m5103 -2 c7 -7 12 -20 12 -30 0 -19 -20 -24 -35 -9 -6 5 -23 11
-40 13 -26 4 -27 5 -10 12 11 4 27 11 35 16 21 12 24 12 38 -2z m-5046 -20
c-18 -19 -24 -20 -34 -9 -10 11 -10 12 0 7 7 -4 12 -1 12 8 0 10 9 16 22 16
l22 0 -22 -22z m-231 -41 c-6 -14 -15 -21 -27 -19 -30 6 -30 12 -4 32 30 22
42 17 31 -13z m205 -8 c3 -6 2 -15 -2 -19 -12 -12 -38 5 -30 19 9 14 23 14 32
0z m5384 -4 c14 -16 10 -18 -14 -9 -9 3 -16 10 -16 15 0 14 16 11 30 -6z
m-6030 -5 c0 -5 -5 -10 -11 -10 -5 0 -7 5 -4 10 3 6 8 10 11 10 2 0 4 -4 4
-10z m83 -12 l22 -12 -25 -6 c-36 -9 -32 -35 5 -36 57 -1 130 -17 167 -35 21
-11 43 -18 49 -17 24 6 16 -18 -14 -42 -22 -18 -29 -20 -25 -8 5 11 0 18 -13
21 -14 4 -19 0 -19 -14 0 -12 -7 -19 -20 -19 -24 0 -70 20 -70 31 0 5 -11 4
-25 -1 -16 -6 -34 -6 -51 0 -14 6 -30 8 -35 5 -4 -3 -19 1 -31 8 -13 8 -36 15
-53 16 -36 1 -71 7 -86 17 -16 9 11 25 32 19 18 -6 84 19 95 36 4 8 9 7 15 -2
11 -18 22 -5 22 26 0 28 23 33 60 13z m5837 2 c0 -5 -4 -10 -10 -10 -5 0 -10
5 -10 10 0 6 5 10 10 10 6 0 10 -4 10 -10z m168 -12 c8 -8 15 -8 27 2 13 10
15 9 15 -8 0 -13 -8 -21 -24 -24 -29 -6 -56 8 -56 27 0 18 21 20 38 3z m-3438
-41 c0 -30 -10 -40 -26 -26 -10 8 -11 15 -1 30 16 26 27 24 27 -4z m3104 4 c3
-5 -8 -11 -24 -13 -35 -5 -41 8 -7 15 12 2 23 5 24 6 1 0 4 -3 7 -8z m86 -1
c0 -5 -7 -10 -16 -10 -8 0 -12 5 -9 10 3 6 10 10 16 10 5 0 9 -4 9 -10z m335
-10 c3 -5 -3 -10 -15 -10 -12 0 -18 5 -15 10 3 6 10 10 15 10 5 0 12 -4 15
-10z m105 -11 c0 -5 -9 -9 -20 -9 -19 0 -26 11 -14 23 8 8 34 -3 34 -14z
m-6466 -13 c10 -16 12 -27 5 -31 -13 -9 -35 10 -42 35 -7 28 17 25 37 -4z
m5978 -1 c-5 -29 -17 -32 -26 -8 -4 9 -1 20 6 25 21 13 25 9 20 -17z m-2998
-4 c4 -5 -3 -7 -14 -4 -23 6 -26 13 -6 13 8 0 17 -4 20 -9z m3648 -18 c8 -10
18 -29 21 -43 4 -17 19 -32 42 -43 44 -21 41 -40 -6 -47 -32 -5 -33 -6 -13
-17 12 -7 24 -9 28 -6 3 3 6 1 6 -5 0 -7 -6 -13 -12 -13 -29 -3 -34 -5 -60
-23 -21 -14 -28 -26 -28 -51 0 -42 -27 -54 -67 -28 -15 10 -30 17 -33 16 -12
-6 -40 9 -40 22 0 18 -18 23 -55 18 -21 -3 -35 0 -44 11 -7 9 -22 16 -31 16
-29 0 -50 11 -50 25 0 22 -22 29 -32 11 -5 -9 -16 -16 -23 -16 -27 0 -15 27
21 47 19 10 25 8 45 -13 17 -18 26 -21 33 -13 8 8 7 13 -2 16 -7 3 -19 11 -26
19 -8 8 -20 14 -26 14 -6 0 -10 6 -7 13 5 14 38 11 52 -6 13 -16 81 -21 90 -8
3 6 14 11 24 11 10 0 29 14 42 32 43 57 70 78 104 78 18 0 39 -8 47 -17z
m-162 -46 c0 -11 -39 16 -45 31 -3 8 4 6 20 -5 13 -10 25 -21 25 -26z m-3758
-16 c2 -17 1 -28 -4 -25 -8 5 -12 54 -4 54 2 0 6 -13 8 -29z m-2529 5 c6 -16
-2 -28 -14 -20 -12 7 -11 34 0 34 5 0 11 -6 14 -14z m177 -26 c0 -5 -4 -10 -9
-10 -6 0 -13 5 -16 10 -3 6 1 10 9 10 9 0 16 -4 16 -10z m5740 -70 c0 -5 -2
-10 -4 -10 -3 0 -8 5 -11 10 -3 6 -1 10 4 10 6 0 11 -4 11 -10z m98 -18 c2 -7
-5 -12 -17 -12 -14 0 -19 5 -14 15 6 17 25 15 31 -3z m-6108 -56 c0 -8 -6 -17
-12 -20 -10 -3 -8 -9 5 -19 9 -8 17 -19 17 -25 0 -5 6 -12 14 -15 8 -3 12 -15
9 -30 -3 -14 0 -28 6 -31 5 -4 9 -12 7 -19 -1 -7 -1 -9 1 -4 6 10 23 9 23 -1
0 -5 -9 -18 -20 -29 -16 -18 -17 -22 -5 -27 8 -3 15 -15 15 -26 0 -11 6 -20
14 -20 8 0 17 -7 20 -16 4 -9 13 -14 21 -10 11 4 15 -2 15 -24 0 -33 -11 -38
-30 -15 -19 22 -33 18 -28 -9 4 -19 1 -22 -14 -18 -21 5 -23 22 -5 41 10 11 9
13 -6 8 -22 -8 -81 45 -97 88 -9 23 -8 30 5 37 19 11 19 27 0 48 -11 13 -13
24 -5 51 6 18 7 49 4 66 -6 30 -4 33 20 33 16 0 26 -6 26 -14z m6670 -310 c0
-3 -4 -8 -10 -11 -5 -3 -10 -1 -10 4 0 6 5 11 10 11 6 0 10 -2 10 -4z m-6455
-36 c3 -5 2 -10 -4 -10 -5 0 -13 5 -16 10 -3 6 -2 10 4 10 5 0 13 -4 16 -10z
m82 -86 c-9 -9 -27 6 -27 22 0 13 2 13 16 -1 9 -9 14 -18 11 -21z m-237 -74
c0 -5 -2 -10 -4 -10 -3 0 -8 5 -11 10 -3 6 -1 10 4 10 6 0 11 -4 11 -10z m6
-237 c-10 -10 -19 5 -10 18 6 11 8 11 12 0 2 -7 1 -15 -2 -18z m-8 -19 c12 -8
22 -10 22 -5 0 22 30 10 36 -14 3 -14 14 -30 23 -36 13 -9 13 -9 -4 -4 -11 4
-26 9 -32 12 -7 3 -13 0 -13 -6 0 -6 6 -11 13 -11 20 -1 51 -32 72 -74 36 -71
40 -76 54 -76 15 0 61 -45 61 -61 0 -12 -7 -11 -31 1 -15 9 -21 7 -25 -5 -4
-10 -13 -13 -24 -10 -10 3 -21 1 -25 -5 -4 -6 -13 -2 -24 11 -10 12 -24 20
-31 17 -9 -3 -1 -17 27 -45 23 -23 46 -51 53 -62 9 -19 8 -21 -14 -21 -14 0
-28 5 -31 10 -7 12 -25 4 -25 -11 0 -5 6 -9 13 -9 20 0 46 -52 40 -82 -5 -25
-8 -26 -52 -22 -25 3 -47 9 -49 14 -2 6 -14 10 -27 10 -13 0 -27 5 -31 11 -4
8 -9 8 -17 0 -7 -7 -5 -16 7 -30 11 -12 13 -21 7 -25 -11 -7 -27 17 -32 49 -2
11 -12 28 -23 37 -10 10 -19 32 -21 50 -1 21 -8 34 -19 36 -17 4 -23 32 -6 32
6 0 10 -5 10 -12 0 -19 20 5 25 30 2 11 9 31 15 43 9 17 9 23 0 29 -9 6 -9 9
-1 15 8 4 9 19 5 38 -17 84 -17 120 1 133 15 11 16 16 5 29 -7 8 -10 16 -6 16
3 1 10 2 15 3 5 0 13 4 17 9 11 10 17 9 42 -9z m1417 -114 c3 -5 2 -10 -4 -10
-5 0 -13 5 -16 10 -3 6 -2 10 4 10 5 0 13 -4 16 -10z m56 -60 c12 0 59 -41 59
-52 0 -10 -50 20 -67 41 -7 8 -13 20 -12 25 0 6 3 5 6 -1 2 -7 9 -13 14 -13z
m339 -120 c0 -5 -4 -12 -10 -15 -5 -3 -10 -4 -10 -1 0 2 -3 12 -6 20 -5 12 -2
15 10 10 9 -3 16 -10 16 -14z m-166 -35 c11 -8 17 -18 13 -21 -3 -3 -16 3 -28
15 -26 24 -14 28 15 6z m-1669 -318 c8 -12 20 -17 29 -14 9 4 16 2 16 -3 0 -6
-8 -10 -17 -10 -11 -1 -25 -16 -34 -35 -18 -39 -15 -43 13 -18 17 15 18 15 8
-14 -9 -25 -7 -36 10 -66 12 -20 30 -39 41 -42 11 -4 18 -9 15 -12 -9 -9 -127
-10 -132 -1 -3 5 -14 6 -24 3 -11 -3 -24 1 -32 10 -7 9 -19 22 -26 30 -11 12
-11 15 -1 15 8 0 23 12 35 26 19 22 26 24 44 14 12 -6 24 -9 27 -7 2 3 -4 8
-14 11 -28 10 -56 78 -44 109 16 41 59 43 86 4z m45 -138 c0 -6 -4 -7 -10 -4
-5 3 -10 11 -10 16 0 6 5 7 10 4 6 -3 10 -11 10 -16z m3230 -129 c0 -5 -2 -10
-4 -10 -3 0 -8 5 -11 10 -3 6 -1 10 4 10 6 0 11 -4 11 -10z m-1574 -59 c5 1
30 1 57 0 54 -1 62 -19 21 -46 -18 -11 -24 -23 -21 -36 8 -28 -19 -50 -51 -43
-46 11 -123 54 -117 65 4 5 15 7 25 4 10 -3 27 -8 37 -10 10 -2 28 -7 41 -11
32 -9 28 11 -8 38 -29 21 -38 47 -23 62 4 4 13 0 19 -9 7 -9 16 -15 20 -14z
m104 -91 c0 -5 -4 -10 -10 -10 -5 0 -10 5 -10 10 0 6 5 10 10 10 6 0 10 -4 10
-10z m2847 -23 c14 -9 6 -37 -16 -55 -14 -11 -13 -13 7 -18 39 -11 12 -25 -42
-23 -64 3 -106 17 -106 35 0 17 26 18 69 3 43 -15 52 -3 19 26 -17 14 -23 26
-17 32 11 11 68 11 86 0z m88 -47 c3 -5 -3 -10 -14 -10 -12 0 -21 -5 -21 -11
0 -5 -4 -7 -10 -4 -5 3 -10 11 -10 16 0 6 5 7 10 4 6 -3 10 -1 10 4 0 14 27
14 35 1z m-3555 -119 c0 -6 -4 -13 -10 -16 -5 -3 -10 1 -10 9 0 9 5 16 10 16
6 0 10 -4 10 -9z m49 -45 c8 -9 8 -16 2 -20 -5 -4 -8 -20 -6 -36 2 -17 0 -30
-5 -30 -5 0 -15 -2 -22 -5 -9 -4 -14 2 -14 15 0 11 6 20 14 20 7 0 10 5 7 10
-4 6 -2 17 5 25 9 10 7 16 -7 24 -15 9 -16 10 -2 11 9 0 22 -6 28 -14z m49
-133 c6 -6 12 -19 12 -27 0 -9 7 -16 15 -16 9 0 15 -9 15 -25 0 -15 6 -25 14
-25 15 0 29 -27 21 -40 -3 -5 -1 -11 4 -15 6 -3 8 -12 4 -20 -5 -14 6 -19 35
-16 7 1 11 -2 10 -8 -2 -5 6 -16 17 -24 11 -9 17 -18 14 -21 -9 -10 -75 21
-111 52 -18 16 -41 31 -50 35 -10 3 -20 18 -24 32 -4 15 -13 25 -24 25 -23 0
-36 50 -21 79 6 11 8 27 5 36 -6 14 -3 14 22 3 16 -7 35 -18 42 -25z m3847
-83 c3 -5 2 -17 -3 -26 -9 -17 -14 -13 -25 19 -7 18 17 25 28 7z m-31 -103
c-4 -12 -13 -27 -20 -35 -8 -7 -19 -22 -24 -33 -6 -10 -17 -19 -25 -19 -8 0
-15 -4 -15 -10 0 -5 -13 -16 -30 -25 -34 -18 -48 -19 -33 -4 6 6 9 17 7 23 -2
6 16 27 40 46 25 19 49 47 55 62 7 20 14 25 31 21 16 -4 19 -10 14 -26z
m-3159 -7 c-3 -5 -11 -10 -16 -10 -6 0 -7 5 -4 10 3 6 11 10 16 10 6 0 7 -4 4
-10z m-38 -22 c-3 -8 -6 -5 -6 6 -1 11 2 17 5 13 3 -3 4 -12 1 -19z m-417 -28
c0 -5 -2 -10 -4 -10 -3 0 -8 5 -11 10 -3 6 -1 10 4 10 6 0 11 -4 11 -10z
m4014 -704 c-8 -22 -55 -38 -117 -41 -49 -2 -57 0 -55 14 3 16 12 17 120 24
20 1 40 5 44 10 11 11 14 9 8 -7z m-4779 -98 c-9 -5 -24 -7 -33 -3 -15 6 -15
8 3 15 28 10 53 0 30 -12z m-220 -8 c3 -5 1 -10 -4 -10 -6 0 -11 5 -11 10 0 6
2 10 4 10 3 0 8 -4 11 -10z m165 -130 c0 -5 -4 -10 -10 -10 -5 0 -10 5 -10 10
0 6 5 10 10 10 6 0 10 -4 10 -10z m5778 -396 c13 -2 20 -9 17 -14 -5 -9 -51
-8 -60 2 -3 3 -26 3 -50 0 -41 -4 -56 4 -39 20 6 6 89 1 132 -8z m92 -14 c0
-5 -7 -10 -16 -10 -8 0 -12 5 -9 10 3 6 10 10 16 10 5 0 9 -4 9 -10z"/>
<path d="M2270 7620 c0 -5 4 -10 9 -10 6 0 13 5 16 10 3 6 -1 10 -9 10 -9 0
-16 -4 -16 -10z"/>
<path d="M2605 7510 c-3 -5 -1 -10 4 -10 6 0 11 5 11 10 0 6 -2 10 -4 10 -3 0
-8 -4 -11 -10z"/>
<path d="M2530 7360 c0 -5 7 -10 16 -10 8 0 12 5 9 10 -3 6 -10 10 -16 10 -5
0 -9 -4 -9 -10z"/>
<path d="M2590 7355 c-8 -9 -8 -15 -2 -15 12 0 26 19 19 26 -2 2 -10 -2 -17
-11z"/>
<path d="M2626 7345 c-11 -8 -16 -21 -13 -30 8 -19 37 -20 37 -1 0 8 5 16 11
18 8 3 7 7 -2 15 -11 9 -19 8 -33 -2z"/>
<path d="M3083 7162 c1 -23 18 -25 25 -2 3 7 0 10 -6 6 -6 -3 -12 0 -15 6 -3
7 -4 3 -4 -10z"/>
<path d="M2955 7070 c3 -5 8 -10 11 -10 2 0 4 5 4 10 0 6 -5 10 -11 10 -5 0
-7 -4 -4 -10z"/>
<path d="M2745 7051 c-3 -5 -1 -12 4 -15 5 -3 11 1 15 9 6 16 -9 21 -19 6z"/>
<path d="M2797 6993 c-12 -11 -8 -23 8 -23 8 0 15 7 15 15 0 16 -12 20 -23 8z"/>
<path d="M2694 6964 c3 -9 6 -18 6 -20 0 -2 5 -4 10 -4 6 0 10 9 10 20 0 12
-7 20 -16 20 -11 0 -14 -5 -10 -16z"/>
<path d="M2785 6910 c3 -5 8 -10 11 -10 2 0 4 5 4 10 0 6 -5 10 -11 10 -5 0
-7 -4 -4 -10z"/>
<path d="M8592 7593 c-9 -9 -23 -12 -43 -8 -27 6 -29 5 -29 -27 0 -18 4 -28 8
-21 4 6 19 14 34 18 22 6 26 4 22 -12 -4 -14 1 -18 20 -19 16 -1 26 3 26 12 0
8 -7 14 -16 14 -13 0 -14 3 -4 14 7 9 8 21 3 29 -7 13 -10 13 -21 0z"/>
<path d="M8690 7594 c0 -9 5 -14 12 -12 18 6 21 28 4 28 -9 0 -16 -7 -16 -16z"/>
<path d="M8650 7504 c0 -10 6 -14 15 -10 8 3 15 0 15 -6 0 -6 2 -9 5 -6 3 3 3
13 -1 22 -8 21 -34 21 -34 0z"/>
<path d="M8571 7139 c-10 -23 -17 -28 -33 -23 -18 5 -18 4 3 -17 14 -14 18
-24 11 -27 -15 -5 -16 -22 -1 -22 13 0 38 29 39 44 0 4 -7 6 -15 2 -17 -6 -19
2 -6 23 8 12 12 12 25 2 19 -16 20 -11 3 22 l-13 25 -13 -29z"/>
<path d="M8360 7130 c0 -5 5 -10 11 -10 5 0 7 5 4 10 -3 6 -8 10 -11 10 -2 0
-4 -4 -4 -10z"/>
<path d="M8410 7119 c0 -5 5 -7 10 -4 6 3 10 8 10 11 0 2 -4 4 -10 4 -5 0 -10
-5 -10 -11z"/>
<path d="M8470 7116 c0 -9 7 -16 16 -16 9 0 14 5 12 12 -6 18 -28 21 -28 4z"/>
<path d="M8435 7099 c-10 -15 3 -25 16 -12 7 7 7 13 1 17 -6 3 -14 1 -17 -5z"/>
<path d="M8390 7080 c0 -5 5 -10 11 -10 5 0 7 5 4 10 -3 6 -8 10 -11 10 -2 0
-4 -4 -4 -10z"/>
<path d="M8245 6889 c-10 -15 3 -25 16 -12 7 7 7 13 1 17 -6 3 -14 1 -17 -5z"/>
<path d="M8285 6890 c-3 -5 -1 -10 4 -10 6 0 11 5 11 10 0 6 -2 10 -4 10 -3 0
-8 -4 -11 -10z"/>
<path d="M8722 6370 c-7 -11 -10 -20 -7 -20 3 0 15 9 27 20 16 14 18 20 7 20
-8 0 -20 -9 -27 -20z"/>
<path d="M2390 5159 c-13 -24 -4 -41 10 -19 10 16 13 40 5 40 -2 0 -9 -9 -15
-21z"/>
<path d="M4051 7144 c0 -11 3 -14 6 -6 3 7 2 16 -1 19 -3 4 -6 -2 -5 -13z"/>
<path d="M2045 6300 c3 -5 11 -10 16 -10 6 0 7 5 4 10 -3 6 -11 10 -16 10 -6
0 -7 -4 -4 -10z"/>
<path d="M4387 5823 c-9 -9 35 -31 51 -25 9 3 10 8 1 18 -12 15 -41 19 -52 7z"/>
<path d="M5177 5673 c-13 -12 -7 -33 8 -33 8 0 15 9 15 20 0 20 -11 26 -23 13z"/>
<path d="M8700 5439 c0 -5 5 -7 10 -4 6 3 10 8 10 11 0 2 -4 4 -10 4 -5 0 -10
-5 -10 -11z"/>
<path d="M8636 5311 c-4 -7 -5 -15 -2 -18 9 -9 19 4 14 18 -4 11 -6 11 -12 0z"/>
<path d="M8675 5250 c-3 -5 -1 -10 4 -10 6 0 11 5 11 10 0 6 -2 10 -4 10 -3 0
-8 -4 -11 -10z"/>
<path d="M4806 3099 c-19 -19 -19 -19 7 -19 32 0 56 -23 64 -61 3 -15 11 -30
19 -33 8 -3 14 -15 14 -26 0 -15 7 -20 25 -20 14 0 25 -5 25 -11 0 -5 4 -8 9
-5 14 9 41 -4 41 -19 0 -26 28 -38 61 -26 28 10 34 8 46 -9 19 -27 26 -25 42
13 29 67 7 130 -60 173 -34 21 -43 22 -93 14 -60 -10 -133 7 -157 36 -15 18
-20 17 -43 -7z m114 -69 c0 -5 -4 -10 -10 -10 -5 0 -10 5 -10 10 0 6 5 10 10
10 6 0 10 -4 10 -10z"/>
<path d="M5880 3058 c-38 -22 -120 -29 -142 -11 -18 15 -117 7 -138 -12 -9 -8
-22 -15 -28 -15 -7 0 -12 -6 -12 -14 0 -8 -4 -16 -9 -18 -18 -7 -23 -65 -6
-82 9 -9 12 -16 6 -16 -23 0 -11 -40 14 -46 14 -3 25 -14 25 -23 1 -14 2 -14
14 2 8 11 27 17 50 17 26 0 36 4 36 15 0 9 11 20 24 25 13 5 27 14 31 19 3 6
15 11 25 11 12 0 26 13 35 31 13 23 20 29 37 23 14 -4 18 -2 14 5 -4 6 -1 11
7 11 8 0 18 7 21 15 3 9 22 23 41 31 40 16 40 17 19 38 -19 20 -21 19 -64 -6z"/>
<path d="M7560 2979 c0 -5 5 -7 10 -4 6 3 10 8 10 11 0 2 -4 4 -10 4 -5 0 -10
-5 -10 -11z"/>
<path d="M5346 2821 c-4 -5 -2 -12 3 -15 5 -4 12 -2 15 3 4 5 2 12 -3 15 -5 4
-12 2 -15 -3z"/>
<path d="M5381 2806 c-9 -11 -25 -16 -45 -14 -20 2 -38 -4 -49 -15 -11 -11
-25 -16 -38 -12 -11 4 -19 2 -19 -5 0 -7 -8 -9 -19 -5 -22 7 -38 -12 -23 -27
7 -7 7 -16 -1 -29 -9 -14 -7 -22 7 -38 10 -11 15 -25 11 -31 -4 -7 -1 -16 6
-21 10 -6 11 -9 2 -9 -26 0 -11 -19 45 -56 40 -27 52 -40 40 -42 -10 -2 -18
-7 -18 -11 0 -14 23 -29 36 -24 8 3 14 0 14 -7 0 -6 -5 -8 -11 -4 -8 5 -10 -1
-5 -19 5 -21 2 -26 -16 -29 -13 -2 -28 4 -35 12 -6 8 -15 12 -18 8 -4 -4 0
-15 9 -24 21 -20 15 -40 -9 -36 -14 3 -16 -1 -12 -18 4 -17 -2 -24 -34 -38
-40 -17 -51 -32 -24 -32 17 0 20 -16 5 -25 -5 -3 -10 -14 -10 -23 0 -23 -51
-53 -77 -46 -11 3 -24 1 -27 -5 -4 -6 0 -11 8 -11 9 0 16 -4 16 -10 0 -15 -31
-28 -53 -22 -16 4 -19 2 -14 -11 5 -13 -4 -22 -31 -36 -21 -11 -44 -27 -51
-35 -8 -9 -21 -16 -31 -16 -10 0 -23 -7 -30 -15 -7 -8 -18 -15 -24 -15 -7 0
-27 -13 -46 -30 -24 -22 -37 -27 -46 -19 -8 7 -14 7 -19 -1 -4 -6 -18 -15 -31
-20 -13 -5 -24 -16 -24 -23 0 -21 -45 -37 -86 -30 -31 5 -36 3 -32 -9 10 -25
-27 -49 -57 -38 -20 7 -25 6 -25 -5 0 -8 -4 -15 -10 -15 -5 0 -9 -6 -7 -12 1
-7 -8 -14 -20 -16 -19 -3 -21 -7 -13 -27 7 -19 6 -23 -5 -18 -8 3 -15 10 -15
17 -1 23 -31 -47 -32 -74 -1 -31 -23 -47 -43 -30 -6 5 -15 7 -18 3 -13 -12 -7
-22 16 -25 12 -2 26 -13 32 -25 5 -13 16 -23 23 -23 7 0 15 -7 18 -15 4 -8 12
-15 20 -15 23 0 16 18 -13 34 -16 8 -26 16 -23 16 45 11 51 9 61 -18 9 -23 12
-25 22 -12 14 18 71 12 73 -7 2 -29 5 -33 24 -33 11 0 20 7 20 15 0 8 4 15 8
15 4 0 18 8 31 18 67 50 74 59 75 93 2 53 42 71 48 22 3 -25 5 -22 18 20 8 26
20 47 28 47 7 0 12 8 10 18 -2 13 3 16 20 14 17 -3 25 2 29 17 3 12 13 19 25
18 16 -1 19 -7 16 -29 -3 -15 -1 -28 3 -28 16 0 38 31 33 45 -4 10 0 15 11 15
11 0 15 5 12 14 -3 8 2 17 11 21 9 3 18 1 20 -5 3 -7 10 -4 18 7 9 12 16 14
21 7 13 -18 61 -23 68 -7 3 8 10 13 17 11 13 -5 48 26 48 42 0 16 18 12 29 -7
10 -17 12 -17 25 0 12 16 17 16 55 2 30 -10 49 -12 68 -4 18 7 28 6 33 -1 17
-28 90 -44 90 -20 0 15 50 20 70 8 16 -10 24 -10 40 0 17 10 21 8 33 -15 13
-23 22 -27 68 -30 37 -2 59 -9 75 -24 12 -12 27 -18 32 -15 6 3 26 -9 46 -28
20 -18 36 -28 36 -21 0 23 49 -7 63 -38 10 -24 17 -27 49 -25 21 1 41 -1 44
-5 4 -4 13 -2 20 4 8 6 21 9 29 5 11 -4 19 3 25 22 6 15 14 34 19 44 8 13 5
17 -15 22 -13 4 -24 13 -24 21 0 19 -24 19 -40 0 -13 -15 -35 -11 -25 5 7 12
-23 71 -44 88 -9 7 -28 11 -43 9 -17 -2 -31 3 -39 15 -14 19 -39 24 -39 8 0
-5 -13 -10 -28 -10 -26 0 -28 3 -24 29 3 25 0 29 -26 34 -26 5 -31 12 -34 39
-2 26 -8 34 -26 36 -17 3 -21 8 -17 23 7 20 -9 27 -20 9 -4 -6 -10 -8 -15 -5
-4 3 -6 -4 -3 -15 6 -24 -9 -26 -27 -5 -7 8 -19 15 -26 15 -16 0 -18 18 -6 38
5 7 16 10 27 6 13 -5 16 -3 13 7 -3 8 -13 16 -24 18 -27 5 -80 44 -66 49 20 6
14 19 -12 26 -14 3 -26 16 -30 31 -5 20 -13 25 -39 26 -76 3 -71 -1 -72 64 0
55 -2 60 -22 63 -13 2 -23 8 -23 14 0 5 7 8 15 4 22 -8 47 32 34 56 -7 14 -7
23 1 33 7 8 8 20 4 26 -5 9 -2 10 11 5 11 -4 22 -2 27 6 12 20 10 28 -7 22
-11 -5 -13 -2 -9 9 4 12 11 14 29 7 24 -9 45 3 45 28 0 9 7 11 21 7 18 -6 19
-5 10 14 -6 11 -19 25 -29 31 -16 9 -16 11 2 24 17 14 15 15 -21 14 -55 -1
-81 19 -85 61 -3 31 -4 33 -17 17z m-131 -221 c0 -8 -4 -15 -10 -15 -5 0 -10
7 -10 15 0 8 5 15 10 15 6 0 10 -7 10 -15z m80 -235 c0 -5 -4 -10 -10 -10 -5
0 -10 5 -10 10 0 6 5 10 10 10 6 0 10 -4 10 -10z m-90 -70 c0 -5 -2 -10 -4
-10 -3 0 -8 5 -11 10 -3 6 -1 10 4 10 6 0 11 -4 11 -10z m-160 -356 c0 -8 -5
-12 -10 -9 -6 4 -8 11 -5 16 9 14 15 11 15 -7z m377 -9 c0 -8 -4 -12 -9 -9 -4
3 -8 9 -8 15 0 5 4 9 8 9 5 0 9 -7 9 -15z m398 5 c3 -5 1 -10 -4 -10 -6 0 -11
5 -11 10 0 6 2 10 4 10 3 0 8 -4 11 -10z m-170 -20 c3 -5 1 -10 -4 -10 -6 0
-11 5 -11 10 0 6 2 10 4 10 3 0 8 -4 11 -10z m300 -85 c18 -7 19 -8 2 -12 -22
-6 -47 14 -47 36 1 14 2 14 13 0 7 -8 21 -19 32 -24z m5 25 c0 -5 -4 -10 -10
-10 -5 0 -10 5 -10 10 0 6 5 10 10 10 6 0 10 -4 10 -10z m74 -64 c-6 -15 -24
-23 -24 -11 0 8 24 34 28 30 1 -1 0 -10 -4 -19z m-44 -5 c0 -5 -7 -12 -16 -15
-21 -8 -24 -8 -24 5 0 5 5 7 10 4 6 -3 10 -1 10 4 0 6 5 11 10 11 6 0 10 -4
10 -9z m-50 -21 c0 -5 -7 -7 -15 -4 -8 4 -15 8 -15 10 0 2 7 4 15 4 8 0 15 -4
15 -10z m-1463 -29 c-1 -21 -28 -33 -47 -21 -8 5 -5 12 11 24 30 21 38 20 36
-3z m26 -65 c6 -15 -1 -26 -15 -26 -4 0 -8 9 -8 20 0 23 15 27 23 6z m122 4
c-3 -5 -13 -10 -21 -10 -8 0 -12 5 -9 10 3 6 13 10 21 10 8 0 12 -4 9 -10z
m19 -24 c-3 -9 -13 -16 -22 -16 -13 0 -12 3 4 19 22 21 27 21 18 -3z"/>
<path d="M5275 2800 c3 -5 8 -10 11 -10 2 0 4 5 4 10 0 6 -5 10 -11 10 -5 0
-7 -4 -4 -10z"/>
<path d="M5480 2785 c0 -8 4 -15 10 -15 5 0 7 7 4 15 -4 8 -8 15 -10 15 -2 0
-4 -7 -4 -15z"/>
<path d="M3035 2780 c3 -5 16 -10 28 -10 18 0 19 2 7 10 -20 13 -43 13 -35 0z"/>
<path d="M2958 2773 c6 -2 18 -2 25 0 6 3 1 5 -13 5 -14 0 -19 -2 -12 -5z"/>
<path d="M5440 2760 c0 -5 7 -10 16 -10 8 0 12 5 9 10 -3 6 -10 10 -16 10 -5
0 -9 -4 -9 -10z"/>
<path d="M1818 2733 c7 -3 16 -2 19 1 4 3 -2 6 -13 5 -11 0 -14 -3 -6 -6z"/>
<path d="M2810 2708 c-19 -5 -54 -9 -78 -8 -27 1 -48 -5 -59 -16 -13 -12 -26
-15 -57 -9 -60 11 -100 9 -104 -4 -5 -14 -49 -15 -57 -1 -4 6 -12 7 -18 3 -7
-4 -33 -9 -60 -10 -26 -1 -56 -7 -66 -13 -11 -5 -47 -10 -80 -10 -50 0 -63 -4
-73 -20 -7 -11 -19 -20 -26 -20 -7 0 -10 -4 -7 -10 3 -5 2 -10 -4 -10 -5 0
-13 5 -16 10 -3 6 -10 10 -16 10 -5 0 -9 -4 -9 -10 0 -5 7 -10 16 -10 11 0 14
-6 9 -21 -7 -21 -5 -21 41 -17 27 3 56 8 64 12 8 3 22 2 30 -4 13 -8 12 -11
-5 -25 -19 -14 -19 -15 -2 -29 13 -10 17 -21 12 -35 -6 -19 -2 -21 42 -22 26
0 89 -3 138 -6 50 -3 102 -5 118 -4 39 1 106 8 115 11 13 5 27 8 50 9 12 0 22
7 22 16 0 16 56 49 70 40 13 -8 20 9 22 54 1 23 5 41 10 41 4 0 8 7 8 15 0 8
-4 15 -10 15 -18 0 -10 22 10 27 11 3 20 9 20 14 0 5 9 9 20 9 28 0 25 15 -5
28 -14 7 -27 12 -28 11 -1 -1 -18 -5 -37 -11z m-40 -73 c0 -10 -10 -15 -30
-15 -38 0 -39 17 -2 23 15 2 28 5 30 6 1 0 2 -6 2 -14z m-103 -16 c-10 -6 -25
-8 -33 -5 -8 3 -14 1 -14 -4 0 -6 -4 -10 -10 -10 -5 0 -7 7 -4 15 4 10 19 15
43 15 30 -1 33 -2 18 -11z"/>
<path d="M2898 2713 c7 -3 16 -2 19 1 4 3 -2 6 -13 5 -11 0 -14 -3 -6 -6z"/>
<path d="M2970 2639 c0 -5 5 -7 10 -4 6 3 10 8 10 11 0 2 -4 4 -10 4 -5 0 -10
-5 -10 -11z"/>
<path d="M2908 2633 c7 -3 16 -2 19 1 4 3 -2 6 -13 5 -11 0 -14 -3 -6 -6z"/>
<path d="M7550 2555 c-6 -8 -8 -20 -4 -26 4 -7 3 -9 -3 -6 -13 8 -73 -20 -73
-34 0 -5 7 -9 15 -9 8 0 15 -7 15 -15 0 -9 9 -15 24 -15 13 0 29 7 36 15 17
20 25 19 60 -7 l30 -22 27 25 c16 13 29 27 31 32 2 4 10 7 18 7 8 0 13 -3 12
-7 -6 -16 42 -52 77 -59 19 -3 40 -14 45 -24 8 -16 4 -18 -30 -22 -22 -2 -44
-1 -48 3 -14 13 -52 20 -52 10 0 -6 7 -11 16 -11 11 0 14 -5 10 -16 -5 -14 -4
-15 8 -5 18 15 40 5 32 -15 -3 -7 -1 -16 4 -19 6 -4 10 0 10 7 0 10 2 10 9 -1
5 -8 23 -14 40 -15 19 -1 31 -6 31 -15 0 -9 8 -12 25 -9 13 3 22 1 19 -4 -10
-16 -48 -26 -66 -17 -17 9 -48 2 -48 -11 0 -9 100 -54 118 -53 6 0 12 -4 12
-9 0 -5 13 -7 29 -3 17 3 32 2 36 -4 3 -6 17 -8 30 -5 14 3 33 0 46 -10 17
-11 26 -13 36 -4 9 7 13 7 13 -1 0 -15 19 -14 54 4 15 8 35 15 44 15 8 0 20 8
27 17 9 12 25 16 54 15 23 -2 41 2 41 8 0 5 -7 10 -16 10 -8 0 -12 5 -8 11 3
6 17 8 31 4 15 -3 22 -2 19 4 -4 6 5 9 21 7 36 -3 83 23 83 46 0 25 -75 60
-210 97 -63 18 -133 37 -155 44 -22 6 -44 12 -50 12 -5 0 -16 4 -22 8 -7 5
-13 6 -13 2 0 -3 -8 -1 -18 4 -16 8 -159 34 -309 55 -23 3 -44 2 -48 -4 -3 -5
-15 -6 -29 0 -17 6 -28 4 -39 -7 -19 -19 -40 -7 -34 18 6 23 3 24 -13 4z m440
-271 c0 -2 -9 -4 -21 -4 -11 0 -18 4 -14 10 5 8 35 3 35 -6z m268 -5 c-2 -6
-8 -10 -13 -10 -5 0 -11 4 -13 10 -2 6 4 11 13 11 9 0 15 -5 13 -11z"/>
<path d="M2710 2411 c-14 -4 -56 -6 -95 -6 -48 1 -74 -3 -84 -12 -9 -9 -24
-12 -40 -8 -14 3 -21 2 -15 -2 6 -4 14 -20 18 -35 4 -17 13 -28 23 -28 9 0 25
-7 35 -17 11 -9 18 -11 18 -5 0 7 4 12 10 12 5 0 7 -6 5 -12 -3 -8 5 -14 22
-15 42 -4 73 6 73 22 0 9 6 12 15 9 8 -4 15 -1 15 5 0 13 37 15 42 2 4 -12 68
15 68 29 0 5 -4 10 -10 10 -5 0 -10 9 -10 19 0 11 -3 22 -7 24 -19 10 -60 14
-83 8z m-160 -41 c0 -5 -4 -10 -10 -10 -5 0 -10 5 -10 10 0 6 5 10 10 10 6 0
10 -4 10 -10z"/>
<path d="M2400 2380 c0 -5 6 -10 14 -10 8 0 18 5 21 10 3 6 -3 10 -14 10 -12
0 -21 -4 -21 -10z"/>
<path d="M5460 2350 c0 -6 7 -13 15 -17 24 -9 27 1 5 15 -13 8 -20 8 -20 2z"/>
<path d="M2810 2283 c0 -5 4 -13 8 -20 10 -16 64 -2 70 18 4 11 2 11 -9 3 -8
-7 -22 -8 -34 -3 -26 10 -35 11 -35 2z"/>
<path d="M8295 2210 c-3 -5 -1 -10 4 -10 6 0 11 5 11 10 0 6 -2 10 -4 10 -3 0
-8 -4 -11 -10z"/>
<path d="M4630 1920 c0 -13 18 -22 24 -11 3 5 -1 11 -9 15 -8 3 -15 1 -15 -4z"/>
<path d="M4035 1890 c3 -5 8 -10 11 -10 2 0 4 5 4 10 0 6 -5 10 -11 10 -5 0
-7 -4 -4 -10z"/>
<path d="M5228 1874 c-5 -4 -8 -16 -8 -28 0 -14 3 -17 11 -9 6 6 9 19 7 28 -1
9 -6 13 -10 9z"/>
<path d="M5375 1870 c-3 -5 1 -10 10 -10 9 0 13 5 10 10 -3 6 -8 10 -10 10 -2
0 -7 -4 -10 -10z"/>
<path d="M4260 1681 c0 -6 5 -13 10 -16 6 -3 10 -2 10 4 0 5 8 12 18 14 10 3
6 5 -10 6 -16 0 -28 -3 -28 -8z"/>
<path d="M6000 1676 c0 -8 5 -18 10 -21 6 -3 10 3 10 14 0 12 -4 21 -10 21 -5
0 -10 -6 -10 -14z"/>
<path d="M6170 1650 c0 -5 5 -10 11 -10 5 0 7 5 4 10 -3 6 -8 10 -11 10 -2 0
-4 -4 -4 -10z"/>
<path d="M4520 1550 c0 -5 5 -10 10 -10 6 0 10 5 10 10 0 6 -4 10 -10 10 -5 0
-10 -4 -10 -10z"/>
<path d="M4380 1535 c-8 -9 -8 -15 -2 -15 12 0 26 19 19 26 -2 2 -10 -2 -17
-11z"/>
<path d="M4462 1538 c5 -15 28 -18 29 -3 0 6 -7 12 -17 13 -10 3 -15 -1 -12
-10z"/>
<path d="M4190 1510 c0 -5 5 -10 10 -10 6 0 10 5 10 10 0 6 -4 10 -10 10 -5 0
-10 -4 -10 -10z"/>
<path d="M4385 1499 c-12 -18 3 -22 20 -5 14 14 14 16 1 16 -8 0 -18 -5 -21
-11z"/>
<path d="M4486 1501 c-4 -5 -2 -12 3 -15 5 -4 12 -2 15 3 4 5 2 12 -3 15 -5 4
-12 2 -15 -3z"/>
<path d="M4220 1470 c0 -5 5 -10 11 -10 5 0 7 5 4 10 -3 6 -8 10 -11 10 -2 0
-4 -4 -4 -10z"/>
<path d="M5299 1208 c2 -24 6 -37 8 -30 3 6 11 12 19 12 12 0 12 4 2 20 -11
17 -10 22 2 30 12 8 10 10 -10 10 -24 0 -25 -3 -21 -42z"/>
<path d="M4891 914 c0 -11 3 -14 6 -6 3 7 2 16 -1 19 -3 4 -6 -2 -5 -13z"/>
</g>
</svg>
